<svg width="36" height="37" viewBox="0 0 36 37" fill="none" xmlns="http://www.w3.org/2000/svg">
<circle cx="18" cy="18.25" r="18" fill="#487FFF"/>
<path d="M18.366 21.2501C15.7243 21.2501 13.375 22.5256 11.8794 24.5051C11.5574 24.9311 11.3965 25.1441 11.4018 25.432C11.4058 25.6544 11.5455 25.935 11.7205 26.0723C11.947 26.2501 12.2609 26.2501 12.8887 26.2501H23.8433C24.4711 26.2501 24.785 26.2501 25.0116 26.0723C25.1866 25.935 25.3262 25.6544 25.3303 25.432C25.3356 25.1441 25.1746 24.9311 24.8527 24.5051C23.357 22.5256 21.0078 21.2501 18.366 21.2501Z" fill="white"/>
<path d="M18.366 18.7501C20.4371 18.7501 22.116 17.0711 22.116 15.0001C22.116 12.929 20.4371 11.2501 18.366 11.2501C16.295 11.2501 14.616 12.929 14.616 15.0001C14.616 17.0711 16.295 18.7501 18.366 18.7501Z" fill="white"/>
<path fill-rule="evenodd" clip-rule="evenodd" d="M18.366 12.0834C16.7552 12.0834 15.4494 13.3893 15.4494 15.0001C15.4494 16.6109 16.7552 17.9167 18.366 17.9167C19.9769 17.9167 21.2827 16.6109 21.2827 15.0001C21.2827 13.3893 19.9769 12.0834 18.366 12.0834ZM13.7827 15.0001C13.7827 12.4688 15.8347 10.4167 18.366 10.4167C20.8973 10.4167 22.9494 12.4688 22.9494 15.0001C22.9494 17.5314 20.8973 19.5834 18.366 19.5834C15.8347 19.5834 13.7827 17.5314 13.7827 15.0001ZM18.366 22.0834C16.0002 22.0834 13.8914 23.2245 12.5442 25.0074C12.4618 25.1165 12.3987 25.2001 12.3463 25.2735C12.3064 25.3293 12.2793 25.3702 12.2603 25.4013C12.3842 25.4154 12.5607 25.4167 12.8887 25.4167H23.8433C24.1714 25.4167 24.3479 25.4154 24.4717 25.4013C24.4528 25.3702 24.4256 25.3293 24.3858 25.2735C24.3333 25.2001 24.2702 25.1165 24.1878 25.0074C22.8406 23.2245 20.7319 22.0834 18.366 22.0834ZM11.2145 24.0027C12.8586 21.8267 15.4484 20.4167 18.366 20.4167C21.2836 20.4167 23.8734 21.8267 25.5176 24.0027C25.525 24.0125 25.5325 24.0224 25.54 24.0323C25.6813 24.2192 25.8329 24.4197 25.9412 24.6131C26.0723 24.8471 26.1695 25.1179 26.1635 25.4472C26.1586 25.7119 26.0784 25.9597 25.981 26.1554C25.8837 26.3511 25.7343 26.5645 25.526 26.7279C25.2482 26.9459 24.9458 27.023 24.6772 27.0553C24.4415 27.0835 24.1621 27.0835 23.8813 27.0834C23.8687 27.0834 23.856 27.0834 23.8433 27.0834H12.8887C12.8761 27.0834 12.8634 27.0834 12.8507 27.0834C12.5699 27.0835 12.2906 27.0835 12.0549 27.0553C11.7862 27.023 11.4838 26.9459 11.206 26.7279C10.9978 26.5645 10.8484 26.3511 10.751 26.1554C10.6536 25.9597 10.5734 25.7119 10.5686 25.4472C10.5625 25.1179 10.6597 24.8471 10.7908 24.6131C10.8991 24.4197 11.0507 24.2192 11.1921 24.0323C11.1996 24.0224 11.207 24.0125 11.2145 24.0027Z" fill="white"/>
</svg>
