<svg xmlns="http://www.w3.org/2000/svg" xmlns:xlink="http://www.w3.org/1999/xlink" fill="none" version="1.1" width="20" height="20" viewBox="0 0 20 20"><defs><radialGradient cx="0" cy="0" r="1" gradientUnits="userSpaceOnUse" id="master_svg0_1780_06419" gradientTransform="translate(0 -1.5555483102798462) rotate(56.4373879668184) scale(13.867509295414175 13.867509295414175)"><stop offset="32.69553184509277%" stop-color="#FFFFFF" stop-opacity="0.20000000298023224"/><stop offset="100%" stop-color="#FFFFFF" stop-opacity="0"/></radialGradient><clipPath id="master_svg1_2030_06892"><rect x="0" y="0" width="20" height="20" rx="4"/></clipPath></defs><g clip-path="url(#master_svg1_2030_06892)"><rect x="0" y="0" width="20" height="20" rx="4" fill="#14A846" fill-opacity="1"/><rect x="0" y="0" width="20" height="20" rx="4" fill="url(#master_svg0_1780_06419)" fill-opacity="1"/><g><path d="M4.58349609375,7.833282470703125L4.58349609375,8.479232470703124Q4.4457660937500005,8.534942470703125,4.31778009375,8.610402470703125Q4.18979309375,8.685852470703125,4.07436109375,8.779392470703126Q3.95892809375,8.872932470703125,3.85858309375,8.982492470703125Q3.75823809375,9.092062470703125,3.67518409375,9.215252470703124Q3.59212909375,9.338442470703125,3.52818809375,9.472552470703125Q3.46424809375,9.606662470703125,3.42082459375,9.748742470703124Q3.37740129375,9.890822470703124,3.35544869375,10.037772470703125Q3.33349609375,10.184712470703126,3.33349609375,10.333282470703125L3.33349609375,10.777722470703125Q3.33349609375,10.930692470703125,3.35675929375,11.081882470703125Q3.38002259375,11.233072470703124,3.42600789375,11.378962470703126Q3.47199309375,11.524862470703125,3.53963109375,11.662062470703125Q3.60726809375,11.799262470703125,3.69498509375,11.924582470703125Q3.78270109375,12.049902470703126,3.88845609375,12.160422470703125Q3.99421109375,12.270942470703124,4.11554309375,12.364102470703125Q4.23687609375,12.457252470703125,4.37096609375,12.530872470703125Q4.5050560937499995,12.604492470703125,4.64877609375,12.656862470703125C5.01323609375,14.776282470703125,6.86004609375,16.388882470703123,9.08349609375,16.388882470703123L11.33349609375,16.388882470703123C13.55689609375,16.388882470703123,15.40379609375,14.776282470703125,15.76819609375,12.656862470703125Q15.91189609375,12.604492470703125,16.04599609375,12.530872470703125Q16.180096093750002,12.457252470703125,16.30149609375,12.364102470703125Q16.42279609375,12.270952470703126,16.52849609375,12.160422470703125Q16.634296093750002,12.049902470703126,16.72199609375,11.924582470703125Q16.80969609375,11.799262470703125,16.87739609375,11.662062470703125Q16.94499609375,11.524862470703125,16.99099609375,11.378962470703126Q17.03699609375,11.233072470703124,17.06019609375,11.081882470703125Q17.08349609375,10.930692470703125,17.08349609375,10.777722470703125L17.08349609375,10.333282470703125Q17.08349609375,10.184712470703126,17.06149609375,10.037772470703125Q17.03959609375,9.890822470703124,16.99619609375,9.748742470703124Q16.95269609375,9.606652470703125,16.888796093750003,9.472552470703125Q16.82489609375,9.338442470703125,16.74179609375,9.215252470703124Q16.65879609375,9.092062470703125,16.558396093749998,8.982492470703125Q16.45809609375,8.872932470703125,16.34259609375,8.779392470703126Q16.227196093750003,8.685852470703125,16.099196093750002,8.610402470703125Q15.97119609375,8.534942470703125,15.83349609375,8.479232470703124L15.83349609375,7.035662470703125C15.83349609375,6.761992470703126,15.72129609375,6.500272470703125,15.52319609375,6.3115224707031246L12.68565609375,3.609144470703125C12.49970609375,3.432057370703125,12.25277609375,3.333282470703125,11.99599609375,3.333282470703125L9.08349609375,3.333282470703125C6.5982160937500005,3.333282470703125,4.58349609375,5.3480024707031255,4.58349609375,7.833282470703125ZM6.83349609375,8.333282470703125L13.58349609375,8.333282470703125L13.58349609375,7.571382470703125L13.07099609375,7.083282470703125L11.45849609375,7.083282470703125L11.45849609375,5.583282470703125L9.08349609375,5.583282470703125Q8.15151609375,5.583282470703125,7.49250609375,6.242292470703125Q6.83349609375,6.901302470703126,6.83349609375,7.833282470703125L6.83349609375,8.333282470703125ZM10.756756093749999,11.474302470703124Q10.62186609375,11.521912470703125,10.40565609375,11.521912470703125Q10.04462609375,11.521912470703125,9.89585609375,11.341402470703125Q9.81452609375,11.242222470703126,9.78675609375,11.041872470703126L9.20356609375,11.041872470703126Q9.20356609375,11.498112470703125,9.53086609375,11.758952470703125Q9.85816609375,12.019802470703125,10.42945609375,12.019802470703125Q10.98884609375,12.019802470703125,11.29531609375,11.754992470703124Q11.60178609375,11.490172470703126,11.60178609375,11.089482470703125Q11.60178609375,10.698702470703125,11.33994609375,10.492402470703125Q11.17133609375,10.359492470703124,10.84006609375,10.280152470703126L10.33622609375,10.159152470703125Q10.04462609375,10.089722470703125,9.955366093750001,10.038142470703125Q9.81650609375,9.960782470703126,9.81650609375,9.804072470703126Q9.81650609375,9.633482470703125,9.957346093750001,9.538272470703124Q10.09818609375,9.443052470703126,10.33423609375,9.443052470703126Q10.54648609375,9.443052470703126,10.68931609375,9.516452470703125Q10.90354609375,9.627532470703125,10.91941609375,9.891352470703126L11.50657609375,9.891352470703126Q11.49070609375,9.425202470703125,11.16439609375,9.180222470703125Q10.83808609375,8.935242470703125,10.37589609375,8.935242470703125Q9.82246609375,8.935242470703125,9.53681609375,9.195102470703125Q9.25117609375,9.454952470703125,9.25117609375,9.847712470703126Q9.25117609375,10.278172470703126,9.546736093749999,10.480502470703126Q9.72129609375,10.601502470703124,10.17753609375,10.704652470703124L10.48698609375,10.774082470703124Q10.758736093749999,10.833592470703124,10.88569609375,10.910952470703126Q11.01264609375,10.990292470703125,11.01264609375,11.135102470703124Q11.01264609375,11.383052470703126,10.756756093749999,11.474302470703124ZM7.55523609375,12.025752470703125Q8.065036093749999,12.025752470703125,8.39233609375,11.726222470703124Q8.71765609375,11.426692470703125,8.79699609375,10.948642470703124L8.19198609375,10.948642470703124Q8.13049609375,11.174772470703125,8.037266093749999,11.287842470703126Q7.86865609375,11.498112470703125,7.54730609375,11.498112470703125Q7.23388609375,11.498112470703125,7.03056609375,11.253132470703125Q6.82723609375,11.008152470703125,6.82723609375,10.516202470703124Q6.82723609375,10.024262470703125,7.01965609375,9.755482470703125Q7.21206609375,9.486692470703126,7.54531609375,9.486692470703126Q7.87261609375,9.486692470703126,8.03924609375,9.677122470703125Q8.13247609375,9.784242470703125,8.19198609375,9.994502470703125L8.80294609375,9.994502470703125Q8.78906609375,9.720762470703125,8.60061609375,9.449002470703125Q8.259426093750001,8.964992470703125,7.52151609375,8.964992470703125Q6.97006609375,8.964992470703125,6.61300609375,9.326022470703126Q6.20239609375,9.740602470703125,6.20239609375,10.506282470703125Q6.20239609375,11.214442470703126,6.56341609375,11.621092470703125Q6.92443609375,12.025752470703125,7.55523609375,12.025752470703125ZM12.57170609375,9.020542470703125L11.91909609375,9.020542470703125L12.90694609375,11.944432470703125L13.48419609375,11.944432470703125L14.48199609375,9.020542470703125L13.84719609375,9.020542470703125L13.20647609375,11.240232470703125L12.57170609375,9.020542470703125ZM7.49250609375,13.479782470703125Q7.17344609375,13.160772470703124,7.0088560937499995,12.777722470703125L13.40809609375,12.777722470703125Q13.24354609375,13.160772470703124,12.92448609375,13.479782470703125Q12.26547609375,14.138882470703125,11.33349609375,14.138882470703125L9.08349609375,14.138882470703125Q8.15151609375,14.138882470703125,7.49250609375,13.479782470703125Z" fill-rule="evenodd" fill="#FFFFFF" fill-opacity="1"/></g></g></svg>