<svg xmlns="http://www.w3.org/2000/svg" xmlns:xlink="http://www.w3.org/1999/xlink" fill="none" version="1.1" viewBox="0 0 32 32"><defs><radialGradient cx="0" cy="0" r="1" gradientUnits="userSpaceOnUse" id="master_svg0_1780_06434" gradientTransform="translate(0 -2.488877296447754) rotate(56.4373879668184) scale(22.18801487266268 22.18801487266268)"><stop offset="32.69553184509277%" stop-color="#FFFFFF" stop-opacity="0.20000000298023224"/><stop offset="100%" stop-color="#FFFFFF" stop-opacity="0"/></radialGradient><clipPath id="master_svg1_1823_08724/1811_08528"><rect x="0" y="0" width="32" height="32" rx="6"/></clipPath></defs><g clip-path="url(#master_svg1_1823_08724/1811_08528)"><rect x="0" y="0" width="32" height="32" rx="6" fill="#2381FC" fill-opacity="1"/><rect x="0" y="0" width="32" height="32" rx="6" fill="url(#master_svg0_1780_06434)" fill-opacity="1"/><g><path d="M7.111083984375,20.833332061767578L7.111083984375,9.833332061767578Q7.111083984375,9.722862061767579,7.116504434375,9.612532061767578Q7.121924884375,9.502192061767577,7.132752684375,9.392252061767579Q7.143580584375,9.282322061767578,7.159789684375,9.173042061767578Q7.175998784375,9.063772061767578,7.197550184375,8.955422061767578Q7.219101984375,8.847082061767578,7.245942984375,8.739922061767578Q7.272784984375,8.632762061767579,7.304851984375,8.527052061767577Q7.336919984375,8.421342061767579,7.374135984375,8.317332061767578Q7.411351984375,8.213312061767578,7.453625984375,8.111252061767578Q7.495900984375,8.009192061767578,7.543131984375,7.909332061767579Q7.590363984375,7.809472061767578,7.642437984375,7.712042061767578Q7.694512984375,7.614622061767578,7.751304984375,7.519872061767578Q7.808097984375,7.425122061767578,7.869470984375,7.333262061767578Q7.9308439843750005,7.241412061767578,7.996649984375,7.152682061767578Q8.062455984375,7.063952061767578,8.132533984375,6.978562061767578Q8.202613984375,6.893172061767578,8.276803984375,6.811312061767579Q8.350993984375,6.729462061767578,8.429103984375,6.651352061767578Q8.507213984375,6.573242061767578,8.589063984375,6.499052061767578Q8.670923984375,6.424862061767578,8.756313984375,6.354782061767578Q8.841703984375,6.284704061767578,8.930433984375,6.218898061767578Q9.019163984375,6.153092061767579,9.111013984374999,6.091719061767578Q9.202873984375,6.030346061767578,9.297623984375,5.9735530617675785Q9.392373984375,5.916761061767578,9.489793984375,5.8646860617675785Q9.587223984375001,5.812612061767578,9.687083984375,5.765380061767578Q9.786943984375,5.718149061767578,9.889003984375,5.675874061767578Q9.991063984375,5.633600061767578,10.095083984375,5.596384061767578Q10.199093984375,5.559168061767578,10.304803984374999,5.527101061767578Q10.410513984375001,5.495033061767578,10.517673984375,5.468191061767578Q10.624833984375,5.4413500617675785,10.733173984375,5.419798261767578Q10.841523984375,5.3982468617675785,10.950793984375,5.382037761767578Q11.060073984375,5.365828661767578,11.170003984375,5.355000761767578Q11.279943984374999,5.344172961767578,11.390283984375,5.338752511767578Q11.500613984375,5.333332061767578,11.611083984375,5.333332061767578L20.611083984375,5.333332061767578Q20.721583984375002,5.333332061767578,20.831883984375,5.338752511767578Q20.942183984375,5.344172961767578,21.052183984375,5.355000761767578Q21.162083984375002,5.365828661767578,21.271383984375,5.382037761767578Q21.380683984375,5.3982468617675785,21.488983984375,5.419798261767578Q21.597283984375,5.4413500617675785,21.704483984375003,5.468191061767578Q21.811683984375,5.495033061767578,21.917383984375,5.5271000617675785Q22.023083984375,5.559168061767578,22.127083984375,5.596384061767578Q22.231083984374997,5.633600061767578,22.333183984374998,5.675874061767578Q22.435183984375,5.718149061767578,22.535083984375,5.765380061767578Q22.634983984374998,5.812612061767578,22.732383984374998,5.8646860617675785Q22.829783984375,5.916761061767578,22.924583984374998,5.9735530617675785Q23.019283984375,6.030346061767578,23.111183984375,6.091719061767578Q23.202983984375,6.153092061767579,23.291683984375,6.218898061767578Q23.380483984375,6.284704061767578,23.465883984375,6.354782061767578Q23.551283984375,6.424862061767578,23.633083984375,6.499052061767578Q23.714983984375,6.573242061767578,23.793083984375,6.651352061767578Q23.871183984375,6.729462061767578,23.945383984375,6.811312061767579Q24.019583984375,6.893172061767578,24.089583984375,6.978562061767578Q24.159683984375,7.063952061767578,24.225483984375,7.152682061767578Q24.291283984375,7.241412061767578,24.352683984375,7.333262061767578Q24.414083984375,7.425122061767578,24.470883984375,7.519872061767578Q24.527683984375,7.614622061767578,24.579683984375,7.712042061767578Q24.631783984375,7.809472061767578,24.678983984375,7.909332061767579Q24.726283984375,8.009192061767578,24.768583984375,8.111252061767578Q24.810783984375,8.213312061767578,24.847983984375,8.317332061767578Q24.885283984375,8.421342061767579,24.917283984375,8.527052061767577Q24.949383984375,8.632762061767579,24.976183984375,8.739922061767578Q25.003083984375,8.847082061767578,25.024583984375,8.955422061767578Q25.046183984375,9.063772061767578,25.062383984375,9.173042061767578Q25.078583984375,9.282322061767578,25.089383984375,9.392252061767579Q25.100283984375,9.502192061767577,25.105683984375,9.612532061767578Q25.111083984375,9.722862061767579,25.111083984375,9.833332061767578L25.111083984375,20.833332061767578Q25.111083984375,20.94383206176758,25.105683984375,21.05413206176758Q25.100283984375,21.164432061767577,25.089383984375,21.274432061767577Q25.078583984375,21.384332061767577,25.062383984375,21.493632061767578Q25.046183984375,21.60293206176758,25.024583984375,21.71123206176758Q25.003083984375,21.81953206176758,24.976183984375,21.926732061767577Q24.949383984375,22.03393206176758,24.917283984375,22.13963206176758Q24.885283984375,22.245332061767577,24.847983984375,22.349332061767576Q24.810783984375,22.45333206176758,24.768583984375,22.55543206176758Q24.726283984375,22.65743206176758,24.678983984375,22.757332061767578Q24.631783984375,22.85723206176758,24.579683984375,22.95463206176758Q24.527683984375,23.052032061767576,24.470883984375,23.14683206176758Q24.414083984375,23.24153206176758,24.352683984375,23.333432061767578Q24.291283984375,23.425232061767577,24.225483984375,23.513932061767576Q24.159683984375,23.60273206176758,24.089583984375,23.68813206176758Q24.019583984375,23.77353206176758,23.945383984375,23.855332061767577Q23.871183984375,23.937232061767578,23.793083984375,24.015332061767577Q23.714983984375,24.09343206176758,23.633083984375,24.167632061767577Q23.551283984375,24.241832061767578,23.465883984375,24.31183206176758Q23.380483984375,24.38193206176758,23.291683984375,24.447732061767578Q23.202983984375,24.513532061767577,23.111183984375,24.574932061767576Q23.019283984375,24.63633206176758,22.924583984374998,24.693132061767578Q22.829783984375,24.749932061767577,22.732383984374998,24.801932061767577Q22.634983984374998,24.85403206176758,22.535083984375,24.90123206176758Q22.435183984375,24.94853206176758,22.333183984374998,24.990732061767577Q22.231083984374997,25.033032061767578,22.127083984375,25.070232061767577Q22.023083984375,25.10753206176758,21.917383984375,25.13953206176758Q21.811683984375,25.17163206176758,21.704483984375003,25.19843206176758Q21.597283984375,25.225332061767578,21.488983984375,25.246832061767577Q21.380683984375,25.268432061767577,21.271383984375,25.284632061767578Q21.162083984375002,25.30083206176758,21.052183984375,25.31163206176758Q20.942183984375,25.32253206176758,20.831883984375,25.327932061767576Q20.721583984375002,25.333332061767578,20.611083984375,25.333332061767578L11.611083984375,25.333332061767578Q11.500613984375,25.333332061767578,11.390283984375,25.327932061767576Q11.279943984374999,25.32253206176758,11.170003984375,25.31163206176758Q11.060073984375,25.30083206176758,10.950793984375,25.284632061767578Q10.841523984375,25.268432061767577,10.733173984375,25.246832061767577Q10.624833984375,25.225332061767578,10.517673984375,25.19843206176758Q10.410513984375001,25.17163206176758,10.304803984374999,25.13953206176758Q10.199093984375,25.10753206176758,10.095083984375,25.070232061767577Q9.991063984375,25.033032061767578,9.889003984375,24.990832061767577Q9.786943984375,24.94853206176758,9.687083984375,24.90123206176758Q9.587223984375001,24.85403206176758,9.489793984375,24.801932061767577Q9.392373984375,24.749932061767577,9.297623984375,24.693132061767578Q9.202873984375,24.63633206176758,9.111013984374999,24.574932061767576Q9.019163984375,24.513532061767577,8.930433984375,24.447732061767578Q8.841703984375,24.38193206176758,8.756313984375,24.31183206176758Q8.670923984375,24.241832061767578,8.589063984375,24.167632061767577Q8.507213984375,24.09343206176758,8.429103984375,24.015332061767577Q8.350993984375,23.937232061767578,8.276803984375,23.855332061767577Q8.202613984375,23.77353206176758,8.132533984375,23.68813206176758Q8.062455984375,23.60273206176758,7.996649984375,23.513932061767576Q7.9308439843750005,23.425232061767577,7.869470984375,23.333432061767578Q7.808097984375,23.24153206176758,7.751304984375,23.14683206176758Q7.694512984375,23.052032061767576,7.642437984375,22.95463206176758Q7.590363984375,22.85723206176758,7.543131984375,22.757332061767578Q7.495900984375,22.65743206176758,7.453625984375,22.55543206176758Q7.411351984375,22.45333206176758,7.374135984375,22.349332061767576Q7.336919984375,22.245332061767577,7.304852984375,22.13963206176758Q7.272784984375,22.03393206176758,7.245942984375,21.926732061767577Q7.219101984375,21.81953206176758,7.197550184375,21.71123206176758Q7.175998784375,21.60293206176758,7.159789684375,21.493632061767578Q7.143580584375,21.384332061767577,7.132752684375,21.274432061767577Q7.121924884375,21.164432061767577,7.116504434375,21.05413206176758Q7.111083984375,20.94383206176758,7.111083984375,20.833332061767578ZM15.583253984375,7.864582061767578L18.083283984375,7.864582061767578L18.083283984375,12.456172061767578L16.833253984375,11.741892061767578L15.583253984375,12.456172061767578L15.583253984375,7.864582061767578ZM13.333253984375,7.864582061767578L13.333253984375,16.333332061767578L16.833253984375,14.333332061767578L18.083283984375,15.047612061767579L20.333283984375,16.333332061767578L20.333283984375,7.864582061767578L20.611083984375,7.864582061767578Q22.579783984375,7.864582061767578,22.579783984375,9.833332061767578L22.579783984375,20.833332061767578Q22.579783984375,22.802032061767576,20.611083984375,22.802032061767576L11.611083984375,22.802032061767576Q9.642333984375,22.802032061767576,9.642333984375,20.833332061767578L9.642333984375,9.833332061767578Q9.642333984375,7.864582061767578,11.611083984375,7.864582061767578L13.333253984375,7.864582061767578Z" fill-rule="evenodd" fill="#FFFFFF" fill-opacity="1"/></g></g></svg>