<svg width="32" height="32" viewBox="0 0 32 32" fill="none" xmlns="http://www.w3.org/2000/svg">
<path d="M24.3696 19.4631C24.6576 20.3953 25.3014 21.3951 26.3048 22.4644C27.3083 23.5337 28.319 24.1953 29.3334 24.4549C28.3539 24.6614 27.3449 25.3122 26.3048 26.4052C25.2648 27.5001 24.6209 28.4743 24.3696 29.3334C23.9623 28.3299 23.3038 27.3539 22.3921 26.4052C21.4804 25.4547 20.4935 24.804 19.4277 24.4549C20.444 24.1423 21.4309 23.4788 22.3921 22.4625C23.3533 21.4463 24.0119 20.4464 24.3696 19.4631ZM25.8554 3.61015L27.8439 5.59885C28.4441 6.19875 28.7809 7.01137 28.7806 7.85844C28.7802 8.70551 28.4427 9.51786 27.8421 10.1173L10.1348 27.7706C9.53137 28.3698 8.71402 28.706 7.86212 28.7053C7.01022 28.7047 6.1934 28.3672 5.59099 27.767L3.60252 25.7764C3.00259 25.1763 2.66606 24.3635 2.66675 23.5165C2.66744 22.6694 3.00529 21.8572 3.60619 21.258L21.3117 3.60649C21.6099 3.30861 21.9641 3.07227 22.3541 2.91101C22.7441 2.74975 23.1622 2.66675 23.5845 2.66675C24.0067 2.66675 24.4248 2.74975 24.8148 2.91101C25.2048 3.07227 25.5591 3.30861 25.8573 3.60649L25.8554 3.61015ZM18.0501 10.7369L5.55247 23.1973C5.50976 23.2398 5.47588 23.2902 5.45276 23.3457C5.42964 23.4012 5.41774 23.4608 5.41774 23.5209C5.41774 23.581 5.42964 23.6405 5.45276 23.696C5.47588 23.7515 5.50976 23.8019 5.55247 23.8444L7.53727 25.8313C7.62393 25.9174 7.74136 25.9658 7.86379 25.9658C7.98622 25.9658 8.10365 25.9174 8.19031 25.8313L20.6861 13.369L18.0501 10.7369ZM7.27495 3.47306C7.51342 4.24807 8.0509 5.08157 8.88921 5.97355C9.72386 6.86371 10.5658 7.41755 11.4133 7.63141C10.5952 7.80506 9.75504 8.34793 8.88738 9.25819C8.01971 10.1685 7.48407 10.9837 7.27495 11.6984C6.93559 10.863 6.38528 10.0496 5.62584 9.25636C4.86641 8.46673 4.04461 7.92387 3.1586 7.63141C4.00241 7.37186 4.82605 6.81985 5.62584 5.97173C6.42747 5.12543 6.97595 4.29376 7.27679 3.47123L7.27495 3.47306ZM23.2579 5.54584L19.9927 8.7994L22.6342 11.4315L25.8939 8.18159C25.9367 8.13914 25.9705 8.08872 25.9937 8.0332C26.0168 7.97768 26.0287 7.91817 26.0287 7.85806C26.0287 7.79796 26.0168 7.73844 25.9937 7.68292C25.9705 7.62741 25.9367 7.57698 25.8939 7.53453L23.9073 5.54584C23.8647 5.50328 23.8141 5.46952 23.7584 5.44648C23.7027 5.42345 23.6429 5.41159 23.5826 5.41159C23.5223 5.41159 23.4626 5.42345 23.4069 5.44648C23.3511 5.46952 23.3005 5.50328 23.2579 5.54584Z" fill="url(#paint0_linear_1207_11534)"/>
<defs>
<linearGradient id="paint0_linear_1207_11534" x1="20.7201" y1="3.54675" x2="11.2801" y2="28.4534" gradientUnits="userSpaceOnUse">
<stop offset="0.13736" stop-color="#86EFAC"/>
<stop offset="0.89759" stop-color="#36D399"/>
</linearGradient>
</defs>
</svg>
