<svg width="16" height="16" viewBox="0 0 16 16" fill="none" xmlns="http://www.w3.org/2000/svg">
<path d="M4.21911 8.31244C4.00158 8.52701 3.64825 8.52152 3.42994 8.30019C3.21163 8.07886 3.211 7.72549 3.42853 7.51092C3.64607 7.29636 3.9994 7.30184 4.21771 7.52318C4.43602 7.74451 4.43665 8.09788 4.21911 8.31244Z" fill="#8A95A7"/>
<path fill-rule="evenodd" clip-rule="evenodd" d="M9.58786 1.22255C9.82654 0.942199 10.2473 0.90842 10.5276 1.1471C12.7183 3.01219 13.3841 5.52254 13.3885 8.00828C13.393 10.5536 12.3861 12.9822 10.5861 14.7576C10.324 15.0162 9.90189 15.0133 9.64333 14.7512C9.38478 14.489 9.38768 14.0669 9.64981 13.8084C11.1927 12.2866 12.0591 10.2019 12.0552 8.01066C12.0511 5.75988 11.4565 3.68898 9.66331 2.16233C9.38296 1.92365 9.34918 1.5029 9.58786 1.22255ZM6.43621 3.93046C6.69834 3.67191 7.12044 3.67481 7.37899 3.93694C8.4441 5.01679 9.04565 6.46981 9.04834 7.97845C9.05103 9.48765 8.4539 10.929 7.38516 11.9831C7.12303 12.2417 6.70093 12.2388 6.44237 11.9767C6.18382 11.7145 6.18672 11.2924 6.44885 11.0339C7.26048 10.2333 7.71707 9.13593 7.71501 7.98083C7.71295 6.82517 7.25169 5.70659 6.42973 4.87325C6.17117 4.61111 6.17407 4.18901 6.43621 3.93046ZM3.74308 7.99133C3.77564 8.02435 3.84438 8.03715 3.89669 7.98556C3.94899 7.93396 3.93714 7.86506 3.90457 7.83204C3.872 7.79902 3.80327 7.78622 3.75096 7.83781C3.69865 7.8894 3.71051 7.95831 3.74308 7.99133ZM2.96038 7.03629C3.44776 6.55556 4.22315 6.57934 4.69234 7.05502C5.16154 7.53071 5.17465 8.30635 4.68727 8.78708C4.19989 9.2678 3.4245 9.24403 2.95531 8.76834C2.48611 8.29265 2.473 7.51701 2.96038 7.03629Z" fill="#8A95A7"/>
</svg>
