<svg xmlns="http://www.w3.org/2000/svg" viewBox="0 0 20 20" fill="none">
  <path d="M17.3336 4.16699C17.3336 3.7988 17.0348 3.5 16.6666 3.5H3.33362C2.96543 3.5 2.66663 3.7988 2.66663 4.16699V12.5C2.66663 12.8682 2.96543 13.167 3.33362 13.167H16.6666C17.0348 13.167 17.3336 12.8682 17.3336 12.5V4.16699ZM19.3336 12.5C19.3336 13.9728 18.1394 15.167 16.6666 15.167H10.9996V16.5H13.3336C13.8858 16.5002 14.3336 16.9478 14.3336 17.5C14.3336 18.0522 13.8858 18.4998 13.3336 18.5H6.66663C6.11434 18.5 5.66663 18.0523 5.66663 17.5C5.66663 16.9477 6.11434 16.5 6.66663 16.5H8.99963V15.167H3.33362C1.86086 15.167 0.666626 13.9728 0.666626 12.5V4.16699C0.666626 2.69423 1.86086 1.5 3.33362 1.5H16.6666C18.1394 1.5 19.3336 2.69423 19.3336 4.16699V12.5Z" fill="#009BDE"/>
  <path d="M7.95977 5.33111C8.19159 5.25596 8.41158 5.28514 8.58396 5.35281L8.58445 5.35186L12.7542 6.97872L12.753 6.9799C12.9293 7.04779 13.0813 7.16659 13.1875 7.32298C13.2968 7.48397 13.3529 7.6755 13.3475 7.87C13.3421 8.06454 13.2759 8.253 13.1576 8.40776C13.0425 8.55828 12.8832 8.6678 12.7029 8.72558L12.7036 8.72774L11.0808 9.25422L10.5998 10.9607C10.596 10.9742 10.5921 10.9879 10.5875 11.0011C10.5405 11.1387 10.4619 11.2642 10.3582 11.3663C10.2546 11.4682 10.1284 11.5445 9.99013 11.5895L9.94927 11.6027C9.87106 11.6281 9.7893 11.6405 9.70709 11.6401C9.51553 11.639 9.3287 11.5792 9.17227 11.469C9.01595 11.3587 8.89734 11.2029 8.83197 11.0232C8.82891 11.0148 8.82565 11.0062 8.82288 10.9976L7.36505 6.50405C7.29034 6.27372 7.30824 6.02329 7.41499 5.80573L7.459 5.72649C7.56964 5.54741 7.73823 5.40955 7.93826 5.33808L7.95977 5.33111Z" fill="#009BDE"/>
</svg>