<svg viewBox="0 0 15 15" fill="none" xmlns="http://www.w3.org/2000/svg">
  <g transform="translate(1, 0)" stroke="currentColor" strokeWidth="1.4" strokeLinecap="round" strokeLinejoin="round">
    <path d="M7.36666 0.699951V3.36662C7.36666 3.72024 7.50714 4.05938 7.75719 4.30943C8.00724 4.55948 8.34638 4.69995 8.7 4.69995H11.3667M6.03333 7.36662V11.3666M4.03333 9.36662L6.03333 7.36662L8.03333 9.36662M8.03333 0.699951H2.03333C1.67971 0.699951 1.34057 0.840427 1.09052 1.09048C0.840473 1.34052 0.699997 1.67966 0.699997 2.03328V12.7C0.699997 13.0536 0.840473 13.3927 1.09052 13.6428C1.34057 13.8928 1.67971 14.0333 2.03333 14.0333H10.0333C10.387 14.0333 10.7261 13.8928 10.9761 13.6428C11.2262 13.3927 11.3667 13.0536 11.3667 12.7V4.03328L8.03333 0.699951Z" />
  </g>
</svg>
