<svg xmlns="http://www.w3.org/2000/svg" viewBox="0 0 14 10">
  <rect width="14" height="10" fill="#FFFFFF"/>
  <circle cx="7" cy="5" r="2.3" fill="#CD2E3A"/>
  <path d="M7 2.7 A2.3 2.3 0 0 1 7 7.3 A1.15 1.15 0 0 1 7 5 A1.15 1.15 0 0 0 7 2.7 Z" fill="#0047A0"/>
  <g stroke="#000000" stroke-width="0.25">
    <line x1="1" y1="1.3" x2="2.6" y2="1.3"/>
    <line x1="1" y1="1.75" x2="2.6" y2="1.75"/>
    <line x1="1" y1="2.2" x2="2.6" y2="2.2"/>
    <line x1="11.4" y1="1.3" x2="13" y2="1.3"/>
    <line x1="11.4" y1="1.75" x2="12.55" y2="1.75"/>
    <line x1="12.75" y1="1.75" x2="13" y2="1.75"/>
    <line x1="11.4" y1="2.2" x2="13" y2="2.2"/>
    <line x1="1" y1="7.8" x2="2.6" y2="7.8"/>
    <line x1="1" y1="8.25" x2="1.65" y2="8.25"/>
    <line x1="1.85" y1="8.25" x2="2.6" y2="8.25"/>
    <line x1="1" y1="8.7" x2="1.65" y2="8.7"/>
    <line x1="1.85" y1="8.7" x2="2.6" y2="8.7"/>
    <line x1="11.4" y1="7.8" x2="13" y2="7.8"/>
    <line x1="11.4" y1="8.25" x2="12.55" y2="8.25"/>
    <line x1="11.4" y1="8.7" x2="13" y2="8.7"/>
    <line x1="12.75" y1="8.7" x2="13" y2="8.7"/>
  </g>
</svg>
