<svg xmlns="http://www.w3.org/2000/svg" xmlns:xlink="http://www.w3.org/1999/xlink" fill="none" version="1.1" viewBox="0 0 18 18"><defs><clipPath id="master_svg0_71_21055"><rect x="0" y="0" width="18" height="18" rx="0"/></clipPath></defs><g clip-path="url(#master_svg0_71_21055)"><g transform="matrix(0,1,-1,0,18,-10)"><path d="M22.34225,9.210049999999999Q22.36032,9.23822,22.376469999999998,9.26754Q22.39262,9.29685,22.40676,9.32718Q22.420920000000002,9.357510000000001,22.43301,9.38872Q22.4451,9.41993,22.455080000000002,9.45187Q22.46506,9.48382,22.47287,9.516359999999999Q22.48069,9.5489,22.48632,9.581900000000001Q22.49195,9.614889999999999,22.495350000000002,9.64818Q22.49876,9.68148,22.499940000000002,9.71492Q22.50111,9.748370000000001,22.50004,9.78182Q22.49898,9.81527,22.49568,9.84858Q22.49238,9.88189,22.48686,9.9149Q22.48134,9.94791,22.47363,9.98047Q22.46592,10.01304,22.45604,10.045020000000001Q22.446170000000002,10.077,22.434179999999998,10.10824Q22.42219,10.13949,22.40814,10.16987Q22.39409,10.20024,22.378030000000003,10.229610000000001Q22.361980000000003,10.258980000000001,22.344,10.28721Q22.32602,10.315439999999999,22.3062,10.3424Q22.286369999999998,10.36936,22.264780000000002,10.39494Q22.2432,10.42052,22.21995,10.444600000000001Q22.19671,10.46867,22.1719,10.49114Q22.147100000000002,10.51361,22.12084,10.53437Q22.09459,10.55513,22.06701,10.57409Q22.03943,10.59305,22.010640000000002,10.61012Q21.98186,10.627189999999999,21.951990000000002,10.642299999999999Q21.92213,10.657409999999999,21.89132,10.670490000000001Q21.86052,10.68357,21.8289,10.69455Q21.79729,10.70554,21.76501,10.714400000000001Q21.73274,10.72325,21.699939999999998,10.72992Q21.66714,10.73659,21.63398,10.741060000000001Q21.60081,10.745519999999999,21.56741,10.74776Q21.534019999999998,10.75,21.50055,10.75L16.49945,10.75Q16.465980000000002,10.75,16.43259,10.74776Q16.39919,10.745519999999999,16.36602,10.741060000000001Q16.33285,10.73659,16.300060000000002,10.72992Q16.26726,10.72325,16.23499,10.714400000000001Q16.20271,10.70554,16.1711,10.69456Q16.13948,10.68357,16.10868,10.670490000000001Q16.07787,10.657409999999999,16.04801,10.642299999999999Q16.01814,10.627189999999999,15.98935,10.61012Q15.96057,10.59305,15.93299,10.57409Q15.90541,10.55513,15.87915,10.53437Q15.8529,10.51361,15.8281,10.49114Q15.80329,10.46867,15.78005,10.444600000000001Q15.7568,10.42052,15.73522,10.39494Q15.71363,10.36936,15.6938,10.3424Q15.67398,10.315439999999999,15.656,10.28721Q15.638020000000001,10.258980000000001,15.62197,10.229610000000001Q15.60591,10.20024,15.59186,10.16987Q15.57781,10.13949,15.56582,10.10824Q15.55383,10.077,15.54396,10.045020000000001Q15.53408,10.01304,15.52637,9.98047Q15.51866,9.94791,15.51314,9.9149Q15.50762,9.88189,15.50432,9.84858Q15.50102,9.81528,15.49996,9.78182Q15.49889,9.748370000000001,15.50006,9.71492Q15.50124,9.68148,15.50465,9.64818Q15.50805,9.614889999999999,15.51368,9.581900000000001Q15.51931,9.5489,15.52713,9.516359999999999Q15.53494,9.48382,15.54492,9.45187Q15.5549,9.41993,15.56699,9.38872Q15.57908,9.357510000000001,15.59323,9.32718Q15.60739,9.29685,15.62353,9.26754Q15.63968,9.23822,15.65775,9.210049999999999L18.1583,5.31208Q18.19211,5.25938,18.232219999999998,5.21131Q18.27234,5.16324,18.31813,5.12055Q18.36393,5.07786,18.41469,5.04122Q18.46545,5.00457,18.52039,4.974544Q18.57533,4.944517,18.633580000000002,4.921576Q18.69183,4.898635,18.75249,4.88314Q18.81315,4.867644,18.87527,4.859835Q18.93739,4.852026,19,4.852026Q19.06261,4.852026,19.12473,4.859835Q19.18685,4.867644,19.24751,4.88314Q19.30817,4.898635,19.366419999999998,4.921576Q19.42467,4.944517,19.47961,4.974544Q19.53455,5.00457,19.58531,5.04122Q19.63607,5.07786,19.68187,5.12055Q19.72767,5.16324,19.767780000000002,5.21131Q19.80789,5.25938,19.8417,5.31208L22.34225,9.210049999999999Z" fill="#FFFFFF" fill-opacity="1"/></g><g><path d="M17,9Q17,9.19639,16.9904,9.39254Q16.9807,9.58869,16.9615,9.78414Q16.9422,9.97958,16.9134,10.17384Q16.8846,10.36811,16.8463,10.56072Q16.808,10.75334,16.760199999999998,10.94384Q16.7125,11.1343,16.6555,11.3223Q16.5985,11.5102,16.532400000000003,11.6951Q16.4662,11.88,16.391,12.0615Q16.3159,12.2429,16.2319,12.4204Q16.1479,12.598,16.0554,12.7712Q15.9628,12.9444,15.8618,13.1128Q15.7609,13.2813,15.6518,13.4446Q15.5426,13.6079,15.4257,13.7656Q15.3087,13.9233,15.1841,14.0751Q15.0595,14.227,14.9276,14.3725Q14.7957,14.518,14.6569,14.6569Q14.518,14.7957,14.3725,14.9276Q14.227,15.0595,14.0751,15.1841Q13.9233,15.3087,13.7656,15.4257Q13.6079,15.5426,13.4446,15.6518Q13.2813,15.7609,13.1128,15.8618Q12.9444,15.9628,12.7712,16.0554Q12.598,16.1479,12.4204,16.2319Q12.2429,16.3159,12.0615,16.391Q11.88,16.4662,11.6951,16.532400000000003Q11.5102,16.5985,11.3223,16.6555Q11.1343,16.7125,10.94384,16.760199999999998Q10.75334,16.808,10.56072,16.8463Q10.36811,16.8846,10.17384,16.9134Q9.97958,16.9422,9.78414,16.9615Q9.58869,16.9807,9.39254,16.9904Q9.19639,17,9,17Q8.803609999999999,17,8.60746,16.9904Q8.41131,16.9807,8.21586,16.9615Q8.02042,16.9422,7.82616,16.9134Q7.63189,16.8846,7.43928,16.8463Q7.24666,16.808,7.05616,16.760199999999998Q6.86565,16.7125,6.67772,16.6555Q6.48979,16.5985,6.30488,16.532400000000003Q6.11997,16.4662,5.93853,16.391Q5.75709,16.3159,5.57956,16.2319Q5.40203,16.1479,5.22883,16.0554Q5.05563,15.9628,4.88718,15.8618Q4.71873,15.7609,4.55544,15.6518Q4.39215,15.5426,4.2344100000000005,15.4257Q4.07666,15.3087,3.92485,15.1841Q3.77304,15.0595,3.62753,14.9276Q3.48201,14.7957,3.34315,14.6569Q3.20428,14.518,3.07239,14.3725Q2.9405,14.227,2.81592,14.0751Q2.69133,13.9233,2.5743400000000003,13.7656Q2.45735,13.6079,2.34824,13.4446Q2.23914,13.2813,2.1381699999999997,13.1128Q2.03721,12.9444,1.94463,12.7712Q1.852053,12.598,1.768086,12.4204Q1.684118,12.2429,1.6089639999999998,12.0615Q1.533809,11.88,1.467647,11.6951Q1.401486,11.5102,1.344477,11.3223Q1.287469,11.1343,1.23975,10.94384Q1.192031,10.75334,1.153718,10.56072Q1.115404,10.36811,1.0865879,10.17384Q1.0577717,9.97958,1.0385222,9.78414Q1.0192727,9.58869,1.00963635,9.39254Q1,9.19639,1,9Q1,8.803609999999999,1.00963635,8.60746Q1.0192727,8.41131,1.0385222,8.21586Q1.0577717,8.02042,1.0865879,7.82616Q1.115404,7.63189,1.153718,7.43928Q1.192031,7.24666,1.23975,7.05616Q1.287469,6.86565,1.344477,6.67772Q1.401486,6.48979,1.467647,6.30488Q1.533809,6.11997,1.6089639999999998,5.93853Q1.684118,5.75709,1.768086,5.57956Q1.852053,5.40203,1.94463,5.22883Q2.03721,5.05563,2.1381699999999997,4.88718Q2.23914,4.71873,2.34824,4.55544Q2.45735,4.39215,2.5743400000000003,4.2344100000000005Q2.69133,4.07666,2.81592,3.92485Q2.9405,3.77304,3.07239,3.62753Q3.20428,3.48201,3.34315,3.34315Q3.48201,3.20428,3.62753,3.07239Q3.77304,2.9405,3.92485,2.81592Q4.07666,2.69133,4.2344100000000005,2.5743400000000003Q4.39215,2.45735,4.55544,2.34824Q4.71873,2.23914,4.88718,2.1381699999999997Q5.05563,2.03721,5.22883,1.94463Q5.40203,1.852053,5.57956,1.768086Q5.75709,1.684118,5.93853,1.6089639999999998Q6.11997,1.533809,6.30488,1.467647Q6.48979,1.401486,6.67772,1.344477Q6.86565,1.287469,7.05616,1.23975Q7.24666,1.192031,7.43928,1.153718Q7.63189,1.115404,7.82616,1.0865879Q8.02042,1.0577717,8.21586,1.0385222Q8.41131,1.0192727,8.60746,1.00963635Q8.803609999999999,1,9,1Q9.19639,1,9.39254,1.00963635Q9.58869,1.0192727,9.78414,1.0385222Q9.97958,1.0577717,10.17384,1.0865879Q10.36811,1.115404,10.56072,1.153718Q10.75334,1.192031,10.94384,1.23975Q11.1343,1.287469,11.3223,1.344477Q11.5102,1.401486,11.6951,1.467647Q11.88,1.533809,12.0615,1.6089639999999998Q12.2429,1.684118,12.4204,1.768086Q12.598,1.852053,12.7712,1.94463Q12.9444,2.03721,13.1128,2.1381699999999997Q13.2813,2.23914,13.4446,2.34824Q13.6079,2.45735,13.7656,2.5743400000000003Q13.9233,2.69133,14.0751,2.81592Q14.227,2.9405,14.3725,3.07239Q14.518,3.20428,14.6569,3.34315Q14.7957,3.48201,14.9276,3.62753Q15.0595,3.77304,15.1841,3.92485Q15.3087,4.07666,15.4257,4.2344100000000005Q15.5426,4.39215,15.6518,4.55544Q15.7609,4.71873,15.8618,4.88718Q15.9628,5.05563,16.0554,5.22883Q16.1479,5.40203,16.2319,5.57956Q16.3159,5.75709,16.391,5.93853Q16.4662,6.11997,16.532400000000003,6.30488Q16.5985,6.48979,16.6555,6.67772Q16.7125,6.86565,16.760199999999998,7.05616Q16.808,7.24666,16.8463,7.43928Q16.8846,7.63189,16.9134,7.82616Q16.9422,8.02042,16.9615,8.21586Q16.9807,8.41131,16.9904,8.60746Q17,8.803609999999999,17,9ZM16,9Q16,8.82816,15.9916,8.65653Q15.9831,8.48489,15.9663,8.313880000000001Q15.9494,8.14287,15.9242,7.97289Q15.899,7.80291,15.8655,7.63437Q15.832,7.46583,15.7902,7.29914Q15.7485,7.13245,15.6986,6.96801Q15.6487,6.80357,15.5908,6.64177Q15.5329,6.47998,15.4672,6.32122Q15.4014,6.16246,15.3279,6.00711Q15.2545,5.85177,15.1734,5.70022Q15.0924,5.54867,15.0041,5.40128Q14.9158,5.25389,14.8203,5.11101Q14.7248,4.96813,14.6225,4.8301Q14.5201,4.69208,14.4111,4.5592500000000005Q14.3021,4.426410000000001,14.1867,4.29909Q14.0713,4.17176,13.9497,4.05025Q13.8282,3.92874,13.7009,3.81334Q13.5736,3.69794,13.4408,3.58893Q13.3079,3.47991,13.1699,3.37755Q13.0319,3.27518,12.889,3.17971Q12.7461,3.08424,12.5987,2.9959Q12.4513,2.90756,12.2998,2.82655Q12.1482,2.7455499999999997,11.9929,2.6720699999999997Q11.8375,2.5986000000000002,11.6788,2.53284Q11.52,2.46708,11.3582,2.4091899999999997Q11.1964,2.3513,11.032,2.3014200000000002Q10.86755,2.25153,10.70086,2.2097800000000003Q10.53417,2.16803,10.36563,2.1345Q10.19709,2.10098,10.02711,2.07576Q9.85713,2.0505500000000003,9.68612,2.03371Q9.51511,2.0168600000000003,9.34347,2.0084299999999997Q9.17184,2,9,2Q8.82816,2,8.65653,2.0084299999999997Q8.48489,2.0168600000000003,8.313880000000001,2.03371Q8.14287,2.0505500000000003,7.97289,2.07576Q7.80291,2.10098,7.63437,2.1345Q7.46583,2.16803,7.29914,2.2097800000000003Q7.13245,2.2515400000000003,6.96801,2.3014200000000002Q6.80357,2.3513,6.64177,2.4091899999999997Q6.47998,2.46708,6.32122,2.53284Q6.16246,2.5986000000000002,6.00711,2.6720699999999997Q5.85177,2.7455499999999997,5.70022,2.82655Q5.54867,2.90756,5.40128,2.9959Q5.25389,3.08424,5.11101,3.17971Q4.96813,3.27518,4.8301,3.37755Q4.69208,3.47991,4.5592500000000005,3.58893Q4.426410000000001,3.69794,4.29909,3.81334Q4.17176,3.92874,4.05025,4.05025Q3.92874,4.17176,3.81334,4.29909Q3.69794,4.426410000000001,3.58893,4.5592500000000005Q3.47991,4.69208,3.37755,4.8301Q3.27518,4.96813,3.17971,5.11101Q3.08424,5.25389,2.9959,5.40128Q2.90756,5.54867,2.82655,5.70022Q2.7455499999999997,5.85177,2.6720699999999997,6.00711Q2.5986000000000002,6.16246,2.53284,6.32122Q2.46708,6.47998,2.4091899999999997,6.64177Q2.3513,6.80357,2.3014200000000002,6.96801Q2.25153,7.13245,2.2097800000000003,7.29914Q2.16803,7.46583,2.1345,7.63437Q2.10098,7.80291,2.07576,7.97289Q2.0505500000000003,8.14287,2.03371,8.313880000000001Q2.0168600000000003,8.48489,2.0084299999999997,8.65653Q2,8.82816,2,9Q2,9.17184,2.0084299999999997,9.34347Q2.0168600000000003,9.51511,2.03371,9.68612Q2.0505500000000003,9.85713,2.07576,10.02711Q2.10098,10.19709,2.1345,10.36563Q2.16803,10.53417,2.2097800000000003,10.70086Q2.25153,10.86755,2.3014200000000002,11.032Q2.3513,11.1964,2.4091899999999997,11.3582Q2.46708,11.52,2.53284,11.6788Q2.5986000000000002,11.8375,2.6720699999999997,11.9929Q2.7455499999999997,12.1482,2.82655,12.2998Q2.90756,12.4513,2.9959,12.5987Q3.08424,12.7461,3.17971,12.889Q3.27518,13.0319,3.37755,13.1699Q3.47991,13.3079,3.58893,13.4408Q3.69794,13.5736,3.81334,13.7009Q3.92874,13.8282,4.05025,13.9497Q4.17176,14.0713,4.29909,14.1867Q4.426410000000001,14.3021,4.5592500000000005,14.4111Q4.69208,14.5201,4.8301,14.6225Q4.96813,14.7248,5.11101,14.8203Q5.25389,14.9158,5.40128,15.0041Q5.54867,15.0924,5.70022,15.1734Q5.85177,15.2545,6.00711,15.3279Q6.16246,15.4014,6.32122,15.4672Q6.47998,15.5329,6.64177,15.5908Q6.80357,15.6487,6.96801,15.6986Q7.13245,15.7485,7.29914,15.7902Q7.46583,15.832,7.63437,15.8655Q7.80291,15.899,7.97289,15.9242Q8.14287,15.9494,8.313880000000001,15.9663Q8.48489,15.9831,8.65653,15.9916Q8.82816,16,9,16Q9.17184,16,9.34347,15.9916Q9.51511,15.9831,9.68612,15.9663Q9.85713,15.9494,10.02711,15.9242Q10.19709,15.899,10.36563,15.8655Q10.53417,15.832,10.70086,15.7902Q10.86755,15.7485,11.032,15.6986Q11.1964,15.6487,11.3582,15.5908Q11.52,15.5329,11.6788,15.4672Q11.8375,15.4014,11.9929,15.3279Q12.1482,15.2545,12.2998,15.1734Q12.4513,15.0924,12.5987,15.0041Q12.7461,14.9158,12.889,14.8203Q13.0319,14.7248,13.1699,14.6225Q13.3079,14.5201,13.4408,14.4111Q13.5736,14.3021,13.7009,14.1867Q13.8282,14.0713,13.9497,13.9497Q14.0713,13.8282,14.1867,13.7009Q14.3021,13.5736,14.4111,13.4408Q14.5201,13.3079,14.6225,13.1699Q14.7248,13.0319,14.8203,12.889Q14.9158,12.7461,15.0041,12.5987Q15.0924,12.4513,15.1734,12.2998Q15.2545,12.1482,15.3279,11.9929Q15.4014,11.8375,15.4672,11.6788Q15.5329,11.52,15.5908,11.3582Q15.6487,11.1964,15.6986,11.032Q15.7485,10.86755,15.7902,10.70086Q15.832,10.53417,15.8655,10.36563Q15.899,10.19709,15.9242,10.02711Q15.9494,9.85713,15.9663,9.68612Q15.9831,9.51511,15.9916,9.34347Q16,9.17184,16,9Z" fill="#FFFFFF" fill-opacity="1"/></g></g></svg>