<svg xmlns="http://www.w3.org/2000/svg" xmlns:xlink="http://www.w3.org/1999/xlink" fill="none" version="1.1" viewBox="0 0 28 28"><defs><radialGradient cx="0" cy="0" r="1" gradientUnits="userSpaceOnUse" id="master_svg0_1663_05199" gradientTransform="translate(0 -2.1777676343917847) rotate(56.4373879668184) scale(19.414513013579846 19.414513013579846)"><stop offset="32.69553184509277%" stop-color="#FFFFFF" stop-opacity="0.20000000298023224"/><stop offset="100%" stop-color="#FFFFFF" stop-opacity="0"/></radialGradient><clipPath id="master_svg1_1789_12198/1778_13969"><rect x="0" y="0" width="28" height="28" rx="5.25"/></clipPath></defs><g clip-path="url(#master_svg1_1789_12198/1778_13969)"><rect x="0" y="0" width="28" height="28" rx="5.25" fill="#816BF2" fill-opacity="1"/><rect x="0" y="0" width="28" height="28" rx="5.25" fill="url(#master_svg0_1663_05199)" fill-opacity="1"/><g><path d="M12.699612352600099,11.12361007537842L14.286372352600099,12.710380075378417L13.496212352600097,13.500540075378417Q13.290742352600098,13.45066007537842,13.064612352600097,13.45066007537842Q12.824642352600097,13.45066007537842,12.607952352600098,13.506830075378417L11.462102352600098,12.360980075378418Q11.337842352600099,12.434230075378418,11.207982352600098,12.497010075378418Q11.078112352600098,12.559790075378418,10.943522352600098,12.611670075378418Q10.808922352600097,12.663550075378417,10.670522352600099,12.704170075378418Q10.532122352600098,12.744800075378418,10.390842352600098,12.773900075378418Q10.249562352600098,12.803010075378417,10.106372352600097,12.820380075378418Q9.963172352600097,12.837760075378418,9.819032352600097,12.84330007537842Q9.674902352600098,12.848830075378418,9.530792352600098,12.842490075378418Q9.386682352600097,12.836150075378418,9.243592352600098,12.817970075378419Q9.100502352600097,12.799790075378418,8.959382352600098,12.769900075378418Q8.818272352600097,12.740010075378418,8.680102352600098,12.698600075378419Q8.541922352600098,12.657200075378418,8.407622352600097,12.604570075378419Q8.273322352600097,12.551940075378418,8.143812352600097,12.488430075378417Q8.014302352600097,12.424930075378418,7.890452352600097,12.350980075378418Q7.766602352600097,12.277040075378418,7.649252352600097,12.19315007537842Q7.531912352600098,12.109260075378419,7.421872352600097,12.016000075378418Q7.311822352600098,11.922750075378417,7.209832352600097,11.820750075378417Q7.039578352600097,11.650500075378417,6.894244352600097,11.45854007537842Q6.748909352600098,11.266580075378418,6.631230352600098,11.056520075378419Q6.513551352600098,10.846460075378417,6.425745352600098,10.622270075378417Q6.337939352600098,10.398080075378418,6.281660552600098,10.163980075378419Q6.225381652600098,9.929880075378417,6.201690052600098,9.690270075378418Q6.177998502600098,9.450670075378419,6.187340702600098,9.210080075378418Q6.1966829526000975,8.969480075378417,6.2388828526000975,8.732440075378419Q6.281082852600098,8.495390075378419,6.355345352600097,8.266360075378419L7.815922352600097,9.726930075378418Q7.871182352600098,9.782200075378418,7.931602352600097,9.831780075378418Q7.9920123526000975,9.881360075378417,8.057002352600097,9.924780075378418Q8.121982352600098,9.968200075378418,8.190912352600098,10.005050075378417Q8.259842352600097,10.041890075378419,8.332042352600098,10.071800075378418Q8.404252352600098,10.101710075378417,8.479042352600098,10.124390075378418Q8.553832352600097,10.147080075378419,8.630492352600097,10.162330075378417Q8.707142352600098,10.177580075378419,8.784922352600098,10.185240075378417Q8.862702352600097,10.192900075378418,8.940862352600098,10.192900075378418Q9.019012352600097,10.192900075378418,9.096792352600097,10.185240075378417Q9.174572352600098,10.177580075378419,9.251232352600098,10.162330075378417Q9.327882352600097,10.147080075378419,9.402672352600097,10.124390075378418Q9.477472352600097,10.101710075378417,9.549672352600098,10.071800075378418Q9.621882352600098,10.041890075378419,9.690812352600098,10.005050075378417Q9.759742352600098,9.968200075378418,9.824722352600098,9.924780075378418Q9.889702352600098,9.881360075378417,9.950122352600097,9.831780075378418Q10.010542352600098,9.782200075378418,10.065802352600098,9.726930075378418Q10.121072352600098,9.671670075378419,10.170652352600097,9.611250075378418Q10.220232352600098,9.550840075378417,10.263652352600097,9.485850075378417Q10.307072352600098,9.420870075378417,10.343912352600098,9.351940075378419Q10.380762352600097,9.283010075378417,10.410672352600098,9.210810075378419Q10.440572352600098,9.138600075378418,10.463262352600097,9.063810075378418Q10.485952352600098,8.989020075378418,10.501202352600098,8.912360075378418Q10.516442352600098,8.835710075378419,10.524112352600097,8.757930075378418Q10.531772352600097,8.680150075378418,10.531772352600097,8.601990075378417Q10.531772352600097,8.523840075378418,10.524112352600097,8.446060075378417Q10.516442352600098,8.368280075378419,10.501202352600098,8.291620075378418Q10.485952352600098,8.214970075378417,10.463262352600097,8.140180075378417Q10.440572352600098,8.065380075378418,10.410672352600098,7.993180075378418Q10.380762352600097,7.920970075378418,10.343912352600098,7.852040075378418Q10.307072352600098,7.783120075378418,10.263652352600097,7.718130075378418Q10.220232352600098,7.653150075378418,10.170652352600097,7.592730075378418Q10.121072352600098,7.532310075378418,10.065802352600098,7.477050075378418L8.605252352600097,6.016499075378418Q8.834282352600098,5.942242975378418,9.071322352600097,5.9000481753784175Q9.308372352600099,5.857853375378418,9.548952352600097,5.848515135378418Q9.789542352600098,5.839176895378418,10.029142352600097,5.862871175378418Q10.268742352600098,5.886565375378418,10.502842352600098,5.942845775378418Q10.736932352600098,5.999126075378418,10.961122352600098,6.086932075378418Q11.185312352600096,6.174738075378418,11.395362352600099,6.2924160753784175Q11.605412352600098,6.410094075378418,11.797372352600098,6.555426075378418Q11.989322352600098,6.700758075378418,12.159572352600097,6.871010075378418Q12.261582352600097,6.973010075378418,12.354842352600098,7.083060075378418Q12.448102352600099,7.193120075378418,12.532002352600099,7.310470075378418Q12.615892352600097,7.427830075378418,12.689842352600099,7.551690075378418Q12.763792352600099,7.675550075378418,12.827292352600097,7.805070075378418Q12.890802352600097,7.934600075378418,12.943432352600098,8.068910075378419Q12.996062352600099,8.203220075378418,13.037462352600098,8.341410075378418Q13.078862352600098,8.479600075378418,13.108752352600098,8.620730075378418Q13.138642352600097,8.761850075378419,13.156812352600099,8.904960075378419Q13.174992352600098,9.048070075378417,13.181322352600098,9.192180075378417Q13.187662352600098,9.336300075378418,13.182112352600097,9.480450075378418Q13.176562352600097,9.624600075378417,13.159172352600098,9.767810075378417Q13.141782352600098,9.911010075378417,13.112672352600097,10.052300075378419Q13.083552352600098,10.193590075378417,13.042912352600098,10.332000075378417Q13.002262352600098,10.470410075378418,12.950372352600098,10.605010075378418Q12.898472352600098,10.739610075378419,12.835672352600097,10.869480075378418Q12.772882352600098,10.999350075378418,12.699612352600099,11.12361007537842ZM18.210372352600096,9.315760075378417L18.210372352600096,8.078320075378418L20.685272352600098,6.840889075378418L21.9227723526001,8.078320075378418L20.685272352600098,10.553200075378417L19.4790723526001,10.553200075378417L14.403482352600097,15.628810075378418Q14.454022352600097,15.709170075378418,14.490372352600097,15.796850075378417Q14.526732352600098,15.884510075378419,14.547882352600098,15.977110075378418Q14.569032352600098,16.069610075378417,14.574382352600098,16.16441007537842Q14.579722352600097,16.259110075378416,14.569122352600097,16.353510075378416Q14.558512352600097,16.44781007537842,14.532242352600097,16.539010075378417Q14.505982352600098,16.630210075378418,14.464812352600097,16.715810075378418Q14.423632352600098,16.801310075378417,14.368702352600097,16.878710075378418Q14.313782352600098,16.95611007537842,14.246662352600097,17.02321007537842L9.031752352600098,22.23811007537842Q8.992672352600097,22.277210075378417,8.949952352600098,22.312310075378416Q8.907222352600098,22.347310075378417,8.861272352600098,22.37801007537842Q8.815322352600099,22.40881007537842,8.766582352600098,22.43481007537842Q8.717832352600098,22.46091007537842,8.666772352600098,22.48201007537842Q8.615712352600099,22.50321007537842,8.562822352600097,22.519210075378417Q8.509942352600097,22.53521007537842,8.455732352600098,22.54601007537842Q8.401532352600098,22.55681007537842,8.346522352600097,22.562210075378417Q8.291522352600097,22.56761007537842,8.236252352600097,22.56761007537842Q8.180992352600098,22.56761007537842,8.125992352600097,22.562210075378417Q8.070982352600097,22.55681007537842,8.016782352600098,22.54601007537842Q7.962572352600097,22.53521007537842,7.909682352600098,22.519210075378417Q7.856802352600098,22.50321007537842,7.805742352600098,22.48201007537842Q7.754672352600098,22.46091007537842,7.705932352600097,22.43481007537842Q7.657192352600098,22.40881007537842,7.611242352600097,22.37801007537842Q7.565282352600097,22.347310075378417,7.522562352600097,22.312310075378416Q7.479842352600098,22.277210075378417,7.440762352600098,22.23811007537842L6.556880352600098,21.354310075378418Q6.517799352600098,21.315210075378417,6.482738352600098,21.27251007537842Q6.447677352600097,21.229710075378417,6.416971352600098,21.183810075378418Q6.386266352600098,21.137810075378418,6.3602133526000975,21.089110075378418Q6.334160352600097,21.040310075378418,6.313010352600098,20.98931007537842Q6.291860352600097,20.938210075378418,6.275817252600097,20.88531007537842Q6.259773852600097,20.83241007537842,6.248991752600098,20.778210075378418Q6.238209552600098,20.724010075378416,6.2327923526000975,20.669010075378417Q6.227375152600097,20.614010075378417,6.227375152600097,20.558810075378418Q6.227375152600097,20.50351007537842,6.2327923526000975,20.44851007537842Q6.238209552600098,20.393510075378416,6.248991752600098,20.339310075378418Q6.259773852600097,20.28511007537842,6.275817252600097,20.23221007537842Q6.291860352600097,20.179310075378417,6.313010352600098,20.12821007537842Q6.334160352600097,20.077210075378417,6.3602133526000975,20.028410075378417Q6.386266352600098,19.979710075378417,6.416971352600098,19.933710075378418Q6.447677352600097,19.887810075378418,6.482738352600098,19.845110075378418Q6.517799352600098,19.80241007537842,6.556880352600098,19.76331007537842L11.771792352600098,14.548370075378418Q11.838902352600098,14.481260075378417,11.916302352600098,14.426340075378418Q11.993702352600097,14.371430075378418,12.079212352600099,14.330250075378418Q12.164722352600098,14.289080075378418,12.255922352600098,14.262810075378418Q12.347122352600097,14.236540075378418,12.441432352600097,14.225930075378418Q12.535742352600098,14.215310075378419,12.630502352600097,14.220640075378418Q12.725252352600098,14.225980075378418,12.817782352600098,14.247110075378417Q12.910302352600098,14.268240075378419,12.997982352600097,14.304570075378418Q13.085652352600098,14.340910075378417,13.166002352600097,14.391420075378418L18.2260723526001,9.331380075378418L18.210372352600096,9.315760075378417ZM16.052042352600097,16.438110075378418Q16.052042352600097,16.678010075378417,15.995872352600097,16.89471007537842L17.141472352600097,18.040310075378418Q17.068272352600097,18.16461007537842,17.005472352600098,18.29451007537842Q16.9426723526001,18.42431007537842,16.890772352600095,18.558910075378417Q16.8389723526001,18.69351007537842,16.798272352600097,18.831910075378417Q16.757672352600096,18.970310075378418,16.728572352600096,19.11161007537842Q16.699472352600097,19.252910075378416,16.6820723526001,19.396110075378417Q16.664772352600096,19.539310075378417,16.6591723526001,19.68341007537842Q16.653672352600097,19.82751007537842,16.6599723526001,19.97161007537842Q16.6663723526001,20.115710075378416,16.6845723526001,20.25881007537842Q16.702672352600096,20.401910075378417,16.732572352600098,20.54301007537842Q16.7624723526001,20.68411007537842,16.803872352600095,20.822310075378418Q16.845272352600098,20.960510075378416,16.8979723526001,21.09481007537842Q16.950572352600098,21.22911007537842,17.014072352600095,21.35861007537842Q17.0775723526001,21.488110075378415,17.1514723526001,21.612010075378418Q17.2254723526001,21.735810075378417,17.3093723526001,21.853110075378417Q17.3932723526001,21.970510075378417,17.486472352600096,22.080510075378417Q17.579772352600095,22.19061007537842,17.6817723526001,22.292610075378416Q17.8519723526001,22.462810075378417,18.043972352600097,22.60821007537842Q18.235972352600097,22.75351007537842,18.445972352600098,22.871210075378418Q18.6560723526001,22.988910075378417,18.880272352600098,23.07671007537842Q19.104472352600098,23.164510075378416,19.338572352600096,23.220710075378417Q19.572672352600097,23.277010075378417,19.812272352600097,23.30071007537842Q20.0518723526001,23.324410075378417,20.2924723526001,23.315110075378417Q20.533072352600097,23.305710075378418,20.770072352600096,23.263510075378417Q21.007172352600097,23.22131007537842,21.2361723526001,23.147010075378418L19.775672352600097,21.68651007537842Q19.720372352600098,21.63121007537842,19.6708723526001,21.570810075378418Q19.621272352600098,21.510410075378417,19.577872352600096,21.44541007537842Q19.534372352600098,21.380410075378418,19.4975723526001,21.31151007537842Q19.460772352600095,21.242610075378416,19.430772352600098,21.17041007537842Q19.400872352600096,21.098210075378418,19.378172352600096,21.02341007537842Q19.3555723526001,20.94861007537842,19.340272352600095,20.871910075378416Q19.325072352600095,20.795310075378417,19.317372352600096,20.717510075378417Q19.309672352600096,20.639710075378417,19.309672352600096,20.561610075378418Q19.309672352600096,20.483410075378416,19.317372352600096,20.40561007537842Q19.325072352600095,20.32791007537842,19.340272352600095,20.251210075378417Q19.3555723526001,20.174510075378418,19.378172352600096,20.099810075378418Q19.400872352600096,20.025010075378418,19.430772352600098,19.952810075378416Q19.460772352600095,19.880610075378417,19.4975723526001,19.811610075378418Q19.534372352600098,19.74271007537842,19.577872352600096,19.677710075378418Q19.621272352600098,19.612710075378416,19.6708723526001,19.55231007537842Q19.720372352600098,19.491910075378417,19.775672352600097,19.436610075378418Q19.8309723526001,19.38141007537842,19.891372352600097,19.331810075378417Q19.9517723526001,19.282210075378416,20.0167723526001,19.238810075378417Q20.081772352600098,19.19541007537842,20.150672352600097,19.158510075378416Q20.219572352600096,19.121710075378417,20.2917723526001,19.09181007537842Q20.363972352600097,19.061910075378417,20.438772352600097,19.03921007537842Q20.5135723526001,19.01651007537842,20.590272352600095,19.001210075378417Q20.666872352600098,18.986010075378417,20.744672352600098,18.978310075378417Q20.822472352600098,18.97071007537842,20.900672352600097,18.97071007537842Q20.978772352600096,18.97071007537842,21.0565723526001,18.978310075378417Q21.134372352600096,18.986010075378417,21.2109723526001,19.001210075378417Q21.287672352600097,19.01651007537842,21.362472352600097,19.03921007537842Q21.437272352600097,19.061910075378417,21.5094723526001,19.09181007537842Q21.581672352600098,19.121710075378417,21.650572352600097,19.158510075378416Q21.7194723526001,19.19541007537842,21.784472352600098,19.238810075378417Q21.849472352600095,19.282210075378416,21.909872352600097,19.331810075378417Q21.970272352600098,19.38141007537842,22.025572352600097,19.436610075378418L23.485972352600097,20.897110075378418Q23.560272352600098,20.66801007537842,23.6024723526001,20.431010075378417Q23.644672352600097,20.19401007537842,23.653972352600096,19.953410075378418Q23.6632723526001,19.712810075378417,23.639572352600098,19.473210075378418Q23.615872352600096,19.23361007537842,23.5596723526001,18.999510075378417Q23.5033723526001,18.76541007537842,23.415572352600098,18.541210075378416Q23.327772352600096,18.317110075378416,23.210072352600097,18.10701007537842Q23.092372352600098,17.897010075378418,22.9470723526001,17.705010075378418Q22.801772352600096,17.513110075378417,22.6314723526001,17.342810075378416Q22.5294723526001,17.24081007537842,22.4193723526001,17.14751007537842Q22.309372352600096,17.054310075378417,22.191972352600096,16.970410075378418Q22.074672352600096,16.886510075378418,21.950772352600097,16.81251007537842Q21.826972352600098,16.738610075378418,21.697372352600098,16.67511007537842Q21.567872352600098,16.61161007537842,21.4335723526001,16.558910075378417Q21.2992723526001,16.506310075378416,21.161072352600097,16.46491007537842Q21.022872352600096,16.423510075378417,20.8817723526001,16.39361007537842Q20.740572352600097,16.363710075378417,20.5974723526001,16.345610075378417Q20.454372352600096,16.327410075378417,20.310272352600098,16.321110075378417Q20.1661723526001,16.314710075378418,20.0219723526001,16.320310075378416Q19.8778723526001,16.32581007537842,19.7346723526001,16.343210075378416Q19.5914723526001,16.360610075378418,19.4501723526001,16.389710075378417Q19.308872352600098,16.418810075378417,19.170472352600097,16.459510075378418Q19.032072352600096,16.500110075378416,18.897472352600097,16.55201007537842Q18.7628723526001,16.603910075378415,18.6329723526001,16.66671007537842Q18.5030723526001,16.729510075378418,18.378772352600098,16.802810075378417L16.7612723526001,15.185250075378418L15.989372352600098,15.957110075378418Q16.052042352600097,16.184610075378416,16.052042352600097,16.438110075378418Z" fill-rule="evenodd" fill="#FFFFFF" fill-opacity="1"/></g></g></svg>