<svg xmlns="http://www.w3.org/2000/svg" fill="none" viewBox="0 0 696 671">
  <g filter="url(#a)">
    <rect
      width="490"
      height="320"
      x="113.97"
      y="138"
      fill="#e3e3e3"
      rx="22"
      transform="rotate(4 113.97 138)"
    />
    <rect
      width="490"
      height="320"
      x="113.97"
      y="138"
      fill="#fff"
      rx="22"
      transform="rotate(4 113.97 138)"
    />
  </g>
  <g filter="url(#b)">
    <rect width="490" height="320" x="102.96" y="153.71" fill="url(#c)" rx="22" />
  </g>
  <path
    stroke="url(#d)"
    stroke-linecap="round"
    stroke-width="4"
    d="M276 362c19.73 0 21.66-18.5 27.06-38 5.41-19.5 14.66-33 25.94-33"
  />
  <path
    stroke="url(#e)"
    stroke-dasharray="8 8"
    stroke-linecap="round"
    stroke-width="4"
    d="M276 362c19.73 0 21.66-18.5 27.06-38 5.41-19.5 14.66-33 25.94-33"
  />
  <mask
    id="g"
    width="490"
    height="320"
    x="103"
    y="154"
    maskUnits="userSpaceOnUse"
    style="mask-type: alpha"
  >
    <rect width="490" height="320" x="103" y="154" fill="url(#f)" rx="22" />
  </mask>
  <g fill="#a4a4a4" mask="url(#g)">
    <path
      d="M124 155h1v1h-1zM124 180h1v1h-1zM124 205h1v1h-1zM124 230h1v1h-1zM124 255h1v1h-1zM124 280h1v1h-1zM124 305h1v1h-1zM124 330h1v1h-1zM124 355h1v1h-1zM124 380h1v1h-1zM124 405h1v1h-1zM124 430h1v1h-1zM124 455h1v1h-1zM149 155h1v1h-1zM149 180h1v1h-1zM149 205h1v1h-1zM149 230h1v1h-1zM149 255h1v1h-1zM149 280h1v1h-1zM149 305h1v1h-1zM149 330h1v1h-1zM149 355h1v1h-1zM149 380h1v1h-1zM149 405h1v1h-1zM149 430h1v1h-1zM149 455h1v1h-1zM174 155h1v1h-1zM174 180h1v1h-1zM174 205h1v1h-1zM174 230h1v1h-1zM174 255h1v1h-1zM174 280h1v1h-1zM174 305h1v1h-1zM174 330h1v1h-1zM174 355h1v1h-1zM174 380h1v1h-1zM174 405h1v1h-1zM174 430h1v1h-1zM174 455h1v1h-1zM199 155h1v1h-1zM199 180h1v1h-1zM199 205h1v1h-1zM199 230h1v1h-1zM199 255h1v1h-1zM199 280h1v1h-1zM199 305h1v1h-1zM199 330h1v1h-1zM199 355h1v1h-1zM199 380h1v1h-1zM199 405h1v1h-1zM199 430h1v1h-1zM199 455h1v1h-1zM224 155h1v1h-1zM224 180h1v1h-1zM224 205h1v1h-1zM224 230h1v1h-1zM224 255h1v1h-1zM224 280h1v1h-1zM224 305h1v1h-1zM224 330h1v1h-1zM224 355h1v1h-1zM224 380h1v1h-1zM224 405h1v1h-1zM224 430h1v1h-1zM224 455h1v1h-1zM249 155h1v1h-1zM249 180h1v1h-1zM249 205h1v1h-1zM249 230h1v1h-1zM249 255h1v1h-1zM249 280h1v1h-1zM249 305h1v1h-1zM249 330h1v1h-1zM249 355h1v1h-1zM249 380h1v1h-1zM249 405h1v1h-1zM249 430h1v1h-1zM249 455h1v1h-1zM274 155h1v1h-1zM274 180h1v1h-1zM274 205h1v1h-1zM274 230h1v1h-1zM274 255h1v1h-1zM274 280h1v1h-1zM274 305h1v1h-1zM274 330h1v1h-1zM274 355h1v1h-1zM274 380h1v1h-1zM274 405h1v1h-1zM274 430h1v1h-1zM274 455h1v1h-1zM299 155h1v1h-1zM299 180h1v1h-1zM299 205h1v1h-1zM299 230h1v1h-1zM299 255h1v1h-1zM299 280h1v1h-1zM299 305h1v1h-1zM299 330h1v1h-1zM299 355h1v1h-1zM299 380h1v1h-1zM299 405h1v1h-1zM299 430h1v1h-1zM299 455h1v1h-1zM324 155h1v1h-1zM324 180h1v1h-1zM324 205h1v1h-1zM324 230h1v1h-1zM324 255h1v1h-1zM324 280h1v1h-1zM324 305h1v1h-1zM324 330h1v1h-1zM324 355h1v1h-1zM324 380h1v1h-1zM324 405h1v1h-1zM324 430h1v1h-1zM324 455h1v1h-1zM349 155h1v1h-1zM349 180h1v1h-1zM349 205h1v1h-1zM349 230h1v1h-1zM349 255h1v1h-1zM349 280h1v1h-1zM349 305h1v1h-1zM349 330h1v1h-1zM349 355h1v1h-1zM349 380h1v1h-1zM349 405h1v1h-1zM349 430h1v1h-1zM349 455h1v1h-1zM374 155h1v1h-1zM374 180h1v1h-1zM374 205h1v1h-1zM374 230h1v1h-1zM374 255h1v1h-1zM374 280h1v1h-1zM374 305h1v1h-1zM374 330h1v1h-1zM374 355h1v1h-1zM374 380h1v1h-1zM374 405h1v1h-1zM374 430h1v1h-1zM374 455h1v1h-1zM399 155h1v1h-1zM399 180h1v1h-1zM399 205h1v1h-1zM399 230h1v1h-1zM399 255h1v1h-1zM399 280h1v1h-1zM399 305h1v1h-1zM399 330h1v1h-1zM399 355h1v1h-1zM399 380h1v1h-1zM399 405h1v1h-1zM399 430h1v1h-1zM399 455h1v1h-1zM424 155h1v1h-1zM424 180h1v1h-1zM424 205h1v1h-1zM424 230h1v1h-1zM424 255h1v1h-1zM424 280h1v1h-1zM424 305h1v1h-1zM424 330h1v1h-1zM424 355h1v1h-1zM424 380h1v1h-1zM424 405h1v1h-1zM424 430h1v1h-1zM424 455h1v1h-1zM449 155h1v1h-1zM449 180h1v1h-1zM449 205h1v1h-1zM449 230h1v1h-1zM449 255h1v1h-1zM449 280h1v1h-1zM449 305h1v1h-1zM449 330h1v1h-1zM449 355h1v1h-1zM449 380h1v1h-1zM449 405h1v1h-1zM449 430h1v1h-1zM449 455h1v1h-1zM474 155h1v1h-1zM474 180h1v1h-1zM474 205h1v1h-1zM474 230h1v1h-1zM474 255h1v1h-1zM474 280h1v1h-1zM474 305h1v1h-1zM474 330h1v1h-1zM474 355h1v1h-1zM474 380h1v1h-1zM474 405h1v1h-1zM474 430h1v1h-1zM474 455h1v1h-1zM499 155h1v1h-1zM499 180h1v1h-1zM499 205h1v1h-1zM499 230h1v1h-1zM499 255h1v1h-1zM499 280h1v1h-1zM499 305h1v1h-1zM499 330h1v1h-1zM499 355h1v1h-1zM499 380h1v1h-1zM499 405h1v1h-1zM499 430h1v1h-1zM499 455h1v1h-1zM524 155h1v1h-1zM524 180h1v1h-1zM524 205h1v1h-1zM524 230h1v1h-1zM524 255h1v1h-1zM524 280h1v1h-1zM524 305h1v1h-1zM524 330h1v1h-1zM524 355h1v1h-1zM524 380h1v1h-1zM524 405h1v1h-1zM524 430h1v1h-1zM524 455h1v1h-1zM549 155h1v1h-1zM549 180h1v1h-1zM549 205h1v1h-1zM549 230h1v1h-1zM549 255h1v1h-1zM549 280h1v1h-1zM549 305h1v1h-1zM549 330h1v1h-1zM549 355h1v1h-1zM549 380h1v1h-1zM549 405h1v1h-1zM549 430h1v1h-1zM549 455h1v1h-1zM574 155h1v1h-1zM574 180h1v1h-1zM574 205h1v1h-1zM574 230h1v1h-1zM574 255h1v1h-1zM574 280h1v1h-1zM574 305h1v1h-1zM574 330h1v1h-1zM574 355h1v1h-1zM574 380h1v1h-1zM574 405h1v1h-1zM574 430h1v1h-1zM574 455h1v1h-1z"
    />
  </g>
  <rect width="463" height="22" x="117" y="166" fill="#f6f7fa" rx="11" />
  <rect width="77" height="22" x="468" y="442" fill="#fff" rx="11" />
  <rect width="27" height="22" x="553" y="442" fill="#fff" rx="11" />
  <g filter="url(#h)">
    <rect width="152" height="164" x="123.5" y="279.5" fill="#fff7fe" stroke="url(#i)" rx="9.5" />
    <path
      fill="url(#j)"
      d="M136 296a4 4 0 0 1 4-4h16a4 4 0 0 1 4 4v16a4 4 0 0 1-4 4h-16a4 4 0 0 1-4-4z"
    />
    <path
      fill="#fff"
      fill-rule="evenodd"
      d="M141.33 304a6.67 6.67 0 0 0 9.75 5.92h2.1a.8.8 0 0 0 .8-.8v-2.18q.68-1.34.69-2.94a6.67 6.67 0 0 0-13.34 0m7.5-2.3h-.92v2.06h-1.89v-1.16q0-.26-.02-.43a1 1 0 0 0-.1-.28.4.4 0 0 0-.2-.15 1 1 0 0 0-.3-.05h-.84v.21h.06q.33 0 .4.2.1.19.1.5v3.7h.9v-2.23h1.9v1.33q0 .26.02.44t.1.28a.4.4 0 0 0 .2.15q.12.03.3.04h.84v-.21h-.07q-.3 0-.4-.2a1 1 0 0 1-.09-.5zm1.93.84a.4.4 0 0 0 .12-.29.6.6 0 0 0-.14-.37q-.12-.16-.39-.16-.16 0-.27.1a.4.4 0 0 0-.11.3q0 .2.12.36.14.16.4.16.16 0 .27-.1m-.81.89q.09.18.09.5v2.38h.9v-2.38q0-.26-.02-.43a1 1 0 0 0-.1-.28.4.4 0 0 0-.2-.15 1 1 0 0 0-.3-.05h-.84v.21h.07q.3 0 .4.2"
      clip-rule="evenodd"
    />
    <path
      fill="url(#k)"
      d="M168 301a10 10 0 0 1 10-10h34a10 10 0 0 1 10 10v6a10 10 0 0 1-10 10h-34a10 10 0 0 1-10-10z"
    />
    <rect width="127" height="20" x="136" y="321" fill="url(#l)" rx="10" />
    <rect width="127" height="87" x="136" y="345" fill="url(#m)" rx="10" />
    <circle cx="275.5" cy="361.5" r="3.5" fill="#ff9de4" />
  </g>
  <circle cx="305.5" cy="319.5" r="3.5" fill="#ff9de4" />
  <path
    fill="#fff"
    d="m295.2 329.31-2.91 3.9a2.9 2.9 0 0 0 .18 3.72l5.52 6.02c.55.6 1.33.95 2.15.95h6.74c3.5 0 5.83-2.2 5.83-5.84v-12.5m-4.38.84v-.84c0-3.33 4.38-3.33 4.38 0"
  />
  <path
    stroke="#a8a8a8"
    stroke-linecap="round"
    stroke-linejoin="round"
    stroke-width="2.19"
    d="m295.2 329.31-2.91 3.9a2.9 2.9 0 0 0 .18 3.72l5.52 6.02c.55.6 1.33.95 2.15.95h6.74c3.5 0 5.83-2.2 5.83-5.84v-12.5c0-3.33-4.38-3.33-4.38 0v.84"
  />
  <path
    stroke="#a8a8a8"
    stroke-linecap="round"
    stroke-linejoin="round"
    stroke-width="2.19"
    d="M303.96 326.4v-2.15m0 0v-.77m0 .77c0-3.34 4.37-3.34 4.37 0v2.15"
  />
  <ellipse cx="301.5" cy="327" fill="#fff" rx="2.5" ry="2" />
  <path
    fill="#fff"
    d="M303.96 326.4v-2.15c0-3.34 4.37-3.34 4.37 0v2.14m-8.75 0v-2.91c0-3.34 4.38-3.34 4.38 0v2.91m-8.75 7.3v-10.21a2.2 2.2 0 0 1 2.19-2.19c1.2 0 2.18.81 2.18 2.02v3.08"
  />
  <path
    stroke="#a8a8a8"
    stroke-linecap="round"
    stroke-linejoin="round"
    stroke-width="2.19"
    d="M308.33 326.4v-2.15c0-3.34-4.37-3.34-4.37 0v2.14-2.91c0-3.34-4.38-3.34-4.38 0v2.91-3.08c0-1.2-.98-2.02-2.18-2.02a2.2 2.2 0 0 0-2.2 2.19v10.2"
  />
  <g filter="url(#n)"><rect width="182" height="240" x="378" y="197" fill="url(#o)" rx="10" /></g>
  <g filter="url(#p)"><circle cx="530" cy="401" r="16" fill="url(#q)" /></g>
  <path
    fill="#fff"
    d="M530 402.75c-1.85 0-3.5.9-4.54 2.28-.23.3-.34.45-.34.65 0 .15.1.35.23.45.16.12.38.12.82.12h7.66c.44 0 .66 0 .82-.12.12-.1.22-.3.23-.45 0-.2-.11-.35-.34-.65a5.7 5.7 0 0 0-4.54-2.28M530 401a2.62 2.62 0 1 0 0-5.25 2.62 2.62 0 0 0 0 5.25"
  />
  <path
    fill="#fff"
    fill-rule="evenodd"
    d="M530 396.33a2.04 2.04 0 1 0 0 4.09 2.04 2.04 0 0 0 0-4.09m-3.2 2.05a3.2 3.2 0 1 1 6.4 0 3.2 3.2 0 0 1-6.4 0m3.2 4.95a5.1 5.1 0 0 0-4.08 2.05l-.13.19-.06.09h8.54l-.06-.1-.13-.18a5.1 5.1 0 0 0-4.08-2.05m-5 1.35a6.27 6.27 0 0 1 10.02.02l.28.4q.15.25.16.59-.01.28-.13.5-.1.2-.32.4-.3.2-.6.22-.25.02-.55.02h-7.72q-.31 0-.56-.02-.3-.01-.6-.23a1.2 1.2 0 0 1-.44-.9q.01-.33.16-.58.12-.2.28-.4z"
    clip-rule="evenodd"
  />
  <g filter="url(#r)"><circle cx="530" cy="231" r="16" fill="url(#s)" /></g>
  <path
    fill="#fff"
    d="M530 232.75c-1.85 0-3.5.9-4.54 2.28-.23.3-.34.45-.34.65 0 .15.1.35.23.45.16.12.38.12.82.12h7.66c.44 0 .66 0 .82-.12.12-.1.22-.3.23-.45 0-.2-.11-.35-.34-.65a5.7 5.7 0 0 0-4.54-2.28M530 231a2.62 2.62 0 1 0 0-5.25 2.62 2.62 0 0 0 0 5.25"
  />
  <path
    fill="#fff"
    fill-rule="evenodd"
    d="M530 226.33a2.04 2.04 0 1 0 0 4.09 2.04 2.04 0 0 0 0-4.09m-3.2 2.04a3.2 3.2 0 1 1 6.4 0 3.2 3.2 0 0 1-6.4 0m3.2 4.96a5.1 5.1 0 0 0-4.08 2.05l-.13.19-.06.09h8.54l-.06-.1-.13-.18a5.1 5.1 0 0 0-4.08-2.05m-5 1.35a6.27 6.27 0 0 1 10.02.02l.28.4q.15.25.16.59-.01.28-.13.5-.1.2-.32.4-.3.2-.6.22-.25.03-.55.02h-7.72q-.31 0-.56-.02-.3-.01-.6-.22a1.2 1.2 0 0 1-.44-.9q.01-.34.16-.59.12-.2.28-.4z"
    clip-rule="evenodd"
  />
  <g filter="url(#t)"><circle cx="410" cy="298" r="16" fill="url(#u)" /></g>
  <path
    fill="url(#v)"
    d="M411.8 294.45c0-.72-.23-1.43-.65-2.03a4 4 0 0 0-1.7-1.35 4 4 0 0 0-4.15.8 3.53 3.53 0 0 0-.82 3.99 3.7 3.7 0 0 0 1.4 1.63c.62.4 1.36.62 2.11.62v-3.66z"
  />
  <path
    fill="url(#w)"
    d="M415.81 294.45a4 4 0 0 0-1-2.59 3.4 3.4 0 0 0-2.4-1.07 3.2 3.2 0 0 0-2.42 1.07 3.7 3.7 0 0 0-1 2.59z"
  />
  <path
    fill="url(#x)"
    d="M415.19 300.32q0-.62-.2-1.2a3 3 0 0 0-.6-1 3 3 0 0 0-.88-.68 2.4 2.4 0 0 0-1.03-.23v3.1z"
  />
  <path
    fill="url(#y)"
    d="M408 299.2q-.76 0-1.46.25-.71.26-1.24.72-.53.47-.82 1.08a3 3 0 0 0 0 2.55q.29.6.82 1.08.53.47 1.24.73.7.25 1.45.25z"
  />
  <path fill="url(#z)" d="M408 294.3v8.2h-3.81v-8.2z" />
  <path fill="url(#A)" d="M412.52 294.45h-4.57v-3.66h4.57z" />
  <path fill="url(#B)" d="M412.52 300.32h-2.53v-3.11h2.53z" />
  <rect width="112" height="51" x="394" y="218" fill="#f7faff" rx="10" />
  <rect width="90" height="8" x="405" y="231" fill="#eaf0fd" rx="4" />
  <rect width="56" height="8" x="405" y="248" fill="#eaf0fd" rx="4" />
  <rect width="112" height="84" x="434" y="285" fill="#f7faff" rx="10" />
  <rect width="90" height="8" x="445" y="298" fill="#eaf0fd" rx="4" />
  <rect width="90" height="8" x="445" y="315" fill="#eaf0fd" rx="4" />
  <rect width="90" height="8" x="445" y="332" fill="#eaf0fd" rx="4" />
  <rect width="69" height="8" x="445" y="349" fill="#eaf0fd" rx="4" />
  <rect width="112" height="26" x="394" y="388" fill="#f7faff" rx="10" />
  <rect width="90" height="8" x="405" y="397" fill="#eaf0fd" rx="4" />
  <g filter="url(#C)">
    <rect width="155" height="139" x="332.5" y="220.5" fill="#fafbfd" stroke="url(#D)" rx="9.5" />
    <rect width="24" height="24" x="346" y="232" fill="url(#E)" rx="4" />
    <path
      fill="#fff"
      fill-rule="evenodd"
      d="M352.8 237.92c-1.18 0-2.13.96-2.13 2.13v7.9c0 1.18.95 2.13 2.13 2.13h10.39c1.18 0 2.13-.96 2.13-2.13v-7.9c0-1.18-.95-2.13-2.13-2.13zm.56 3.47c0-.37.3-.66.66-.66h2a.67.67 0 1 1 0 1.33h-.4v3.9h.4a.67.67 0 0 1 0 1.33h-2a.67.67 0 0 1 0-1.33h.4v-3.9h-.4a.67.67 0 0 1-.66-.67m5.48 4.77a.67.67 0 0 0-.94.94.67.67 0 0 0 .95-.94m2.35 0a.67.67 0 0 0-.94.94.67.67 0 0 0 .94-.94"
      clip-rule="evenodd"
    />
    <path
      fill="url(#F)"
      d="M378 241a10 10 0 0 1 10-10h37a10 10 0 0 1 10 10v6a10 10 0 0 1-10 10h-37a10 10 0 0 1-10-10z"
    />
    <rect width="127" height="64" x="346" y="261" fill="url(#G)" rx="10" />
    <rect width="127" height="20" x="346" y="329" fill="url(#H)" rx="10" />
    <circle cx="332.5" cy="290.5" r="3.5" fill="#82b5fc" />
  </g>
  <defs>
    <linearGradient
      id="c"
      x1="454.46"
      x2="255.46"
      y1="702.21"
      y2="179.71"
      gradientUnits="userSpaceOnUse"
    >
      <stop stop-color="#eef3ff" />
      <stop offset="1" stop-color="#fff" />
    </linearGradient>
    <linearGradient
      id="d"
      x1="328.31"
      x2="258.93"
      y1="283.88"
      y2="307.98"
      gradientUnits="userSpaceOnUse"
    >
      <stop stop-color="#e8e8e8" stop-opacity="0" />
      <stop offset="1" stop-color="#f5bbff" />
    </linearGradient>
    <linearGradient
      id="e"
      x1="328.31"
      x2="258.93"
      y1="283.88"
      y2="307.98"
      gradientUnits="userSpaceOnUse"
    >
      <stop stop-color="#e6e6e6" />
      <stop offset="1" stop-color="#f0f0f0" stop-opacity="0" />
    </linearGradient>
    <linearGradient id="f" x1="454.5" x2="255.5" y1="702.5" y2="180" gradientUnits="userSpaceOnUse">
      <stop stop-color="#eef3ff" />
      <stop offset="1" stop-color="#fff" />
    </linearGradient>
    <linearGradient id="i" x1="128" x2="276" y1="279" y2="440.5" gradientUnits="userSpaceOnUse">
      <stop stop-color="#ffc4df" />
      <stop offset="1" stop-color="#ff8be6" />
    </linearGradient>
    <linearGradient id="j" x1="148" x2="139.67" y1="292" y2="314" gradientUnits="userSpaceOnUse">
      <stop stop-color="#fb93c5" />
      <stop offset="1" stop-color="#f2759b" />
    </linearGradient>
    <linearGradient id="k" x1="168" x2="222" y1="304" y2="304" gradientUnits="userSpaceOnUse">
      <stop stop-color="#fff" />
      <stop offset="1" stop-color="#f6eff8" />
    </linearGradient>
    <linearGradient id="l" x1="136" x2="263" y1="331" y2="331" gradientUnits="userSpaceOnUse">
      <stop stop-color="#fff" />
      <stop offset="1" stop-color="#f6eff8" />
    </linearGradient>
    <linearGradient id="m" x1="136" x2="263" y1="388.5" y2="388.5" gradientUnits="userSpaceOnUse">
      <stop stop-color="#fff" />
      <stop offset="1" stop-color="#f6eff8" />
    </linearGradient>
    <linearGradient id="o" x1="383" x2="543" y1="202.5" y2="437" gradientUnits="userSpaceOnUse">
      <stop stop-color="#e7edfa" />
      <stop offset="1" stop-color="#f6f1ff" />
    </linearGradient>
    <linearGradient id="q" x1="530" x2="518.89" y1="385" y2="414.33" gradientUnits="userSpaceOnUse">
      <stop stop-color="#d8dfff" />
      <stop offset="1" stop-color="#e0eaff" />
    </linearGradient>
    <linearGradient id="s" x1="530" x2="518.89" y1="215" y2="244.33" gradientUnits="userSpaceOnUse">
      <stop stop-color="#d8dfff" />
      <stop offset="1" stop-color="#e0eaff" />
    </linearGradient>
    <linearGradient id="u" x1="418.5" x2="404" y1="278" y2="313" gradientUnits="userSpaceOnUse">
      <stop stop-color="#dbc6ff" />
      <stop offset=".36" stop-color="#dfdeff" />
      <stop offset="1" stop-color="#e0fbff" />
    </linearGradient>
    <linearGradient id="v" x1="410" x2="410" y1="290.79" y2="305.86" gradientUnits="userSpaceOnUse">
      <stop stop-color="#326dff" />
      <stop offset="1" stop-color="#8eaeff" />
    </linearGradient>
    <linearGradient id="w" x1="410" x2="410" y1="290.79" y2="305.86" gradientUnits="userSpaceOnUse">
      <stop stop-color="#326dff" />
      <stop offset="1" stop-color="#8eaeff" />
    </linearGradient>
    <linearGradient id="x" x1="410" x2="410" y1="290.79" y2="305.86" gradientUnits="userSpaceOnUse">
      <stop stop-color="#326dff" />
      <stop offset="1" stop-color="#8eaeff" />
    </linearGradient>
    <linearGradient id="y" x1="410" x2="410" y1="290.79" y2="305.86" gradientUnits="userSpaceOnUse">
      <stop stop-color="#326dff" />
      <stop offset="1" stop-color="#8eaeff" />
    </linearGradient>
    <linearGradient id="z" x1="410" x2="410" y1="290.79" y2="305.86" gradientUnits="userSpaceOnUse">
      <stop stop-color="#326dff" />
      <stop offset="1" stop-color="#8eaeff" />
    </linearGradient>
    <linearGradient id="A" x1="410" x2="410" y1="290.79" y2="305.86" gradientUnits="userSpaceOnUse">
      <stop stop-color="#326dff" />
      <stop offset="1" stop-color="#8eaeff" />
    </linearGradient>
    <linearGradient id="B" x1="410" x2="410" y1="290.79" y2="305.86" gradientUnits="userSpaceOnUse">
      <stop stop-color="#326dff" />
      <stop offset="1" stop-color="#8eaeff" />
    </linearGradient>
    <linearGradient id="D" x1="348.5" x2="488" y1="220" y2="360" gradientUnits="userSpaceOnUse">
      <stop stop-color="#74b3ff" />
      <stop offset="1" stop-color="#aebcf3" />
    </linearGradient>
    <linearGradient id="E" x1="358" x2="349.67" y1="232" y2="254" gradientUnits="userSpaceOnUse">
      <stop stop-color="#769cff" />
      <stop offset="1" stop-color="#4980ff" />
    </linearGradient>
    <linearGradient id="F" x1="378" x2="435" y1="244" y2="244" gradientUnits="userSpaceOnUse">
      <stop stop-color="#f5f9ff" />
      <stop offset="1" stop-color="#ebefff" />
    </linearGradient>
    <linearGradient id="G" x1="346" x2="473" y1="293" y2="293" gradientUnits="userSpaceOnUse">
      <stop stop-color="#f5f9ff" />
      <stop offset="1" stop-color="#ebefff" />
    </linearGradient>
    <linearGradient id="H" x1="346" x2="473" y1="339" y2="339" gradientUnits="userSpaceOnUse">
      <stop stop-color="#f5f9ff" />
      <stop offset="1" stop-color="#ebefff" />
    </linearGradient>
    <filter
      id="a"
      width="560.33"
      height="401.84"
      x="67.79"
      y="116.79"
      color-interpolation-filters="sRGB"
      filterUnits="userSpaceOnUse"
    >
      <feFlood flood-opacity="0" result="BackgroundImageFix" />
      <feColorMatrix
        in="SourceAlpha"
        result="hardAlpha"
        values="0 0 0 0 0 0 0 0 0 0 0 0 0 0 0 0 0 0 127 0"
      />
      <feOffset dy="4" />
      <feGaussianBlur stdDeviation="13.3" />
      <feComposite in2="hardAlpha" operator="out" />
      <feColorMatrix values="0 0 0 0 0.867075 0 0 0 0 0.867075 0 0 0 0 0.867075 0 0 0 0.84 0" />
      <feBlend in2="BackgroundImageFix" result="effect1_dropShadow_491_1818" />
      <feBlend in="SourceGraphic" in2="effect1_dropShadow_491_1818" result="shape" />
    </filter>
    <filter
      id="b"
      width="543.2"
      height="373.2"
      x="76.36"
      y="131.11"
      color-interpolation-filters="sRGB"
      filterUnits="userSpaceOnUse"
    >
      <feFlood flood-opacity="0" result="BackgroundImageFix" />
      <feColorMatrix
        in="SourceAlpha"
        result="hardAlpha"
        values="0 0 0 0 0 0 0 0 0 0 0 0 0 0 0 0 0 0 127 0"
      />
      <feOffset dy="4" />
      <feGaussianBlur stdDeviation="13.3" />
      <feComposite in2="hardAlpha" operator="out" />
      <feColorMatrix values="0 0 0 0 0.879845 0 0 0 0 0.879845 0 0 0 0 0.879845 0 0 0 0.91 0" />
      <feBlend in2="BackgroundImageFix" result="effect1_dropShadow_491_1818" />
      <feBlend in="SourceGraphic" in2="effect1_dropShadow_491_1818" result="shape" />
    </filter>
    <filter
      id="h"
      width="213.8"
      height="222.8"
      x="94.1"
      y="254.1"
      color-interpolation-filters="sRGB"
      filterUnits="userSpaceOnUse"
    >
      <feFlood flood-opacity="0" result="BackgroundImageFix" />
      <feColorMatrix
        in="SourceAlpha"
        result="hardAlpha"
        values="0 0 0 0 0 0 0 0 0 0 0 0 0 0 0 0 0 0 127 0"
      />
      <feOffset dy="4" />
      <feGaussianBlur stdDeviation="14.45" />
      <feComposite in2="hardAlpha" operator="out" />
      <feColorMatrix values="0 0 0 0 0.713726 0 0 0 0 0.760784 0 0 0 0 0.87451 0 0 0 0.06 0" />
      <feBlend in2="BackgroundImageFix" result="effect1_dropShadow_491_1818" />
      <feBlend in="SourceGraphic" in2="effect1_dropShadow_491_1818" result="shape" />
    </filter>
    <filter
      id="n"
      width="182"
      height="240"
      x="378"
      y="197"
      color-interpolation-filters="sRGB"
      filterUnits="userSpaceOnUse"
    >
      <feFlood flood-opacity="0" result="BackgroundImageFix" />
      <feBlend in="SourceGraphic" in2="BackgroundImageFix" result="shape" />
      <feTurbulence
        baseFrequency="2 2"
        numOctaves="3"
        result="noise"
        seed="4196"
        stitchTiles="stitch"
        type="fractalNoise"
      />
      <feColorMatrix in="noise" result="alphaNoise" type="luminanceToAlpha" />
      <feComponentTransfer in="alphaNoise" result="coloredNoise1">
        <feFuncA
          tableValues="0 0 0 0 0 0 0 0 0 0 0 0 0 0 0 0 0 0 0 0 1 1 1 1 1 1 1 1 1 0 0 0 0 0 0 0 0 0 0 0 0 0 0 0 0 0 0 0 0 0 0 0 0 0 0 0 0 0 0 0 0 0 0 0 0 0 0 0 0 0 0 0 0 0 0 0 0 0 0 0 0 0 0 0 0 0 0 0 0 0 0 0 0 0 0 0 0 0 0 0"
          type="discrete"
        />
      </feComponentTransfer>
      <feComposite in="coloredNoise1" in2="shape" operator="in" result="noise1Clipped" />
      <feFlood flood-color="rgba(151, 6, 255, 0.25)" result="color1Flood" />
      <feComposite in="color1Flood" in2="noise1Clipped" operator="in" result="color1" />
      <feMerge result="effect1_noise_491_1818">
        <feMergeNode in="shape" />
        <feMergeNode in="color1" />
      </feMerge>
    </filter>
    <filter
      id="p"
      width="61.8"
      height="61.8"
      x="499.1"
      y="374.1"
      color-interpolation-filters="sRGB"
      filterUnits="userSpaceOnUse"
    >
      <feFlood flood-opacity="0" result="BackgroundImageFix" />
      <feColorMatrix
        in="SourceAlpha"
        result="hardAlpha"
        values="0 0 0 0 0 0 0 0 0 0 0 0 0 0 0 0 0 0 127 0"
      />
      <feOffset dy="4" />
      <feGaussianBlur stdDeviation="7.45" />
      <feComposite in2="hardAlpha" operator="out" />
      <feColorMatrix values="0 0 0 0 0 0 0 0 0 0 0 0 0 0 0 0 0 0 0.12 0" />
      <feBlend in2="BackgroundImageFix" result="effect1_dropShadow_491_1818" />
      <feBlend in="SourceGraphic" in2="effect1_dropShadow_491_1818" result="shape" />
    </filter>
    <filter
      id="r"
      width="61.8"
      height="61.8"
      x="499.1"
      y="204.1"
      color-interpolation-filters="sRGB"
      filterUnits="userSpaceOnUse"
    >
      <feFlood flood-opacity="0" result="BackgroundImageFix" />
      <feColorMatrix
        in="SourceAlpha"
        result="hardAlpha"
        values="0 0 0 0 0 0 0 0 0 0 0 0 0 0 0 0 0 0 127 0"
      />
      <feOffset dy="4" />
      <feGaussianBlur stdDeviation="7.45" />
      <feComposite in2="hardAlpha" operator="out" />
      <feColorMatrix values="0 0 0 0 0 0 0 0 0 0 0 0 0 0 0 0 0 0 0.12 0" />
      <feBlend in2="BackgroundImageFix" result="effect1_dropShadow_491_1818" />
      <feBlend in="SourceGraphic" in2="effect1_dropShadow_491_1818" result="shape" />
    </filter>
    <filter
      id="t"
      width="61.8"
      height="61.8"
      x="379.1"
      y="271.1"
      color-interpolation-filters="sRGB"
      filterUnits="userSpaceOnUse"
    >
      <feFlood flood-opacity="0" result="BackgroundImageFix" />
      <feColorMatrix
        in="SourceAlpha"
        result="hardAlpha"
        values="0 0 0 0 0 0 0 0 0 0 0 0 0 0 0 0 0 0 127 0"
      />
      <feOffset dy="4" />
      <feGaussianBlur stdDeviation="7.45" />
      <feComposite in2="hardAlpha" operator="out" />
      <feColorMatrix values="0 0 0 0 0 0 0 0 0 0 0 0 0 0 0 0 0 0 0.12 0" />
      <feBlend in2="BackgroundImageFix" result="effect1_dropShadow_491_1818" />
      <feBlend in="SourceGraphic" in2="BackgroundImageFix" result="shape" />
      <feTurbulence
        baseFrequency="2 2"
        numOctaves="3"
        result="noise"
        seed="7020"
        stitchTiles="stitch"
        type="fractalNoise"
      />
      <feColorMatrix in="noise" result="alphaNoise" type="luminanceToAlpha" />
      <feComponentTransfer in="alphaNoise" result="coloredNoise1">
        <feFuncA
          tableValues="0 0 0 0 0 0 0 0 0 0 0 0 0 0 0 1 1 1 1 1 1 1 1 1 1 1 1 1 1 1 1 1 1 1 0 0 0 0 0 0 0 0 0 0 0 0 0 0 0 0 0 0 0 0 0 0 0 0 0 0 0 0 0 0 0 0 0 0 0 0 0 0 0 0 0 0 0 0 0 0 0 0 0 0 0 0 0 0 0 0 0 0 0 0 0 0 0 0 0 0"
          type="discrete"
        />
      </feComponentTransfer>
      <feComposite in="coloredNoise1" in2="shape" operator="in" result="noise1Clipped" />
      <feFlood flood-color="rgba(116, 54, 217, 0.12)" result="color1Flood" />
      <feComposite in="color1Flood" in2="noise1Clipped" operator="in" result="color1" />
      <feMerge result="effect2_noise_491_1818">
        <feMergeNode in="shape" />
        <feMergeNode in="color1" />
      </feMerge>
      <feBlend
        in="effect2_noise_491_1818"
        in2="effect1_dropShadow_491_1818"
        result="effect2_noise_491_1818"
      />
    </filter>
    <filter
      id="C"
      width="218.6"
      height="199.6"
      x="299.2"
      y="201.2"
      color-interpolation-filters="sRGB"
      filterUnits="userSpaceOnUse"
    >
      <feFlood flood-opacity="0" result="BackgroundImageFix" />
      <feColorMatrix
        in="SourceAlpha"
        result="hardAlpha"
        values="0 0 0 0 0 0 0 0 0 0 0 0 0 0 0 0 0 0 127 0"
      />
      <feOffset dy="11" />
      <feGaussianBlur stdDeviation="14.9" />
      <feComposite in2="hardAlpha" operator="out" />
      <feColorMatrix values="0 0 0 0 0.446553 0 0 0 0 0.500514 0 0 0 0 0.627009 0 0 0 0.16 0" />
      <feBlend in2="BackgroundImageFix" result="effect1_dropShadow_491_1818" />
      <feBlend in="SourceGraphic" in2="effect1_dropShadow_491_1818" result="shape" />
    </filter>
  </defs>
</svg>
